<?xml version="1.0" encoding="utf-8"?>
<svg version="1.1" xmlns:xlink="http://www.w3.org/1999/xlink" width="45px" height="60px" xmlns="http://www.w3.org/2000/svg">
  <defs>
    <pattern id="BGPattern" patternUnits="userSpaceOnUse" alignment="0 0" imageRepeat="None" />
    <mask fill="white" id="Clip254">
      <path d="M 45 30  C 45 30.463320463320464  44.75479744136461 30.862290862290862  44.26439232409382 31.19691119691119  L 1.791044776119403 59.69111969111969  C 1.3006396588486142 60.02574002574002  0.8795309168443498 60.06435006435007  0.5277185501066098 59.8069498069498  C 0.17590618336886993 59.54954954954955  0 59.08622908622908  0 58.41698841698842  L 0 1.583011583011582  C 0 0.913770913770906  0.17590618336886993 0.45045045045044363  0.5277185501066098 0.19305019305019488  C 0.8795309168443498 -0.06435006435007384  1.3006396588486142 -0.02574002574002421  1.791044776119403 0.3088803088803105  L 44.26439232409382 28.8030888030888  C 44.75479744136461 29.137709137709138  45 29.536679536679536  45 30  Z " fill-rule="evenodd" />
    </mask>
  </defs>
  <g transform="matrix(1 0 0 1 -169 -581 )">
    <path d="M 45 30  C 45 30.463320463320464  44.75479744136461 30.862290862290862  44.26439232409382 31.19691119691119  L 1.791044776119403 59.69111969111969  C 1.3006396588486142 60.02574002574002  0.8795309168443498 60.06435006435007  0.5277185501066098 59.8069498069498  C 0.17590618336886993 59.54954954954955  0 59.08622908622908  0 58.41698841698842  L 0 1.583011583011582  C 0 0.913770913770906  0.17590618336886993 0.45045045045044363  0.5277185501066098 0.19305019305019488  C 0.8795309168443498 -0.06435006435007384  1.3006396588486142 -0.02574002574002421  1.791044776119403 0.3088803088803105  L 44.26439232409382 28.8030888030888  C 44.75479744136461 29.137709137709138  45 29.536679536679536  45 30  Z " fill-rule="nonzero" fill="rgba(0, 0, 0, 1)" stroke="none" transform="matrix(1 0 0 1 169 581 )" class="fill" />
    <path d="M 45 30  C 45 30.463320463320464  44.75479744136461 30.862290862290862  44.26439232409382 31.19691119691119  L 1.791044776119403 59.69111969111969  C 1.3006396588486142 60.02574002574002  0.8795309168443498 60.06435006435007  0.5277185501066098 59.8069498069498  C 0.17590618336886993 59.54954954954955  0 59.08622908622908  0 58.41698841698842  L 0 1.583011583011582  C 0 0.913770913770906  0.17590618336886993 0.45045045045044363  0.5277185501066098 0.19305019305019488  C 0.8795309168443498 -0.06435006435007384  1.3006396588486142 -0.02574002574002421  1.791044776119403 0.3088803088803105  L 44.26439232409382 28.8030888030888  C 44.75479744136461 29.137709137709138  45 29.536679536679536  45 30  Z " stroke-width="0" stroke-dasharray="0" stroke="rgba(255, 255, 255, 0)" fill="none" transform="matrix(1 0 0 1 169 581 )" class="stroke" mask="url(#Clip254)" />
  </g>
</svg>