<?xml version="1.0" encoding="utf-8"?>
<svg version="1.1" xmlns:xlink="http://www.w3.org/1999/xlink" width="43px" height="51px" xmlns="http://www.w3.org/2000/svg">
  <defs>
    <pattern id="BGPattern" patternUnits="userSpaceOnUse" alignment="0 0" imageRepeat="None" />
    <mask fill="white" id="Clip257">
      <path d="M 31.7041015625 26.99025974025974  L 1.8896484375 50.503246753246756  C 1.3577473958333335 50.92272727272727  0.9098307291666669 51.06623376623377  0.5458984375000001 50.933766233766235  C 0.1819661458333334 50.801298701298705  0 50.44805194805195  0 49.874025974025976  L 0 1.1259740259740236  C 0 0.5519480519480474  0.1819661458333334 0.19870129870129594  0.5458984375000001 0.06623376623376342  C 0.9098307291666669 -0.06623376623376909  1.3577473958333335 0.07727272727272494  1.8896484375 0.4967532467532455  L 31.7041015625 24.00974025974026  C 31.9560546875 24.20844155844156  32.138020833333336 24.418181818181818  32 24.638961038961043  L 32 2.1857142857142837  C 32.25 1.6116883116883076  32.51595052083333 1.114935064935062  33.0478515625 0.6954545454545471  C 33.57975260416667 0.2759740259740209  34.20963541666667 0.06623376623376342  34.9375 0.06623376623376342  L 40.3125 0.06623376623376342  C 41.040364583333336 0.06623376623376342  41.670247395833336 0.2759740259740209  42.2021484375 0.6954545454545471  C 42.73404947916667 1.114935064935062  43 1.6116883116883076  43 2.1857142857142837  L 43 48.81428571428572  C 43 49.38831168831169  42.73404947916667 49.88506493506493  42.2021484375 50.304545454545455  C 41.670247395833336 50.72402597402598  41.040364583333336 50.933766233766235  40.3125 50.933766233766235  L 34.9375 50.933766233766235  C 34.20963541666667 50.933766233766235  33.57975260416667 50.72402597402598  33.0478515625 50.304545454545455  C 32.51595052083333 49.88506493506493  32.25 49.38831168831169  32 48.81428571428572  L 32 26.361038961038965  C 32.138020833333336 26.581818181818182  31.9560546875 26.79155844155844  31.7041015625 26.99025974025974  Z " fill-rule="evenodd" />
    </mask>
  </defs>
  <g transform="matrix(1 0 0 1 -281 -585 )">
    <path d="M 31.7041015625 26.99025974025974  L 1.8896484375 50.503246753246756  C 1.3577473958333335 50.92272727272727  0.9098307291666669 51.06623376623377  0.5458984375000001 50.933766233766235  C 0.1819661458333334 50.801298701298705  0 50.44805194805195  0 49.874025974025976  L 0 1.1259740259740236  C 0 0.5519480519480474  0.1819661458333334 0.19870129870129594  0.5458984375000001 0.06623376623376342  C 0.9098307291666669 -0.06623376623376909  1.3577473958333335 0.07727272727272494  1.8896484375 0.4967532467532455  L 31.7041015625 24.00974025974026  C 31.9560546875 24.20844155844156  32.138020833333336 24.418181818181818  32 24.638961038961043  L 32 2.1857142857142837  C 32.25 1.6116883116883076  32.51595052083333 1.114935064935062  33.0478515625 0.6954545454545471  C 33.57975260416667 0.2759740259740209  34.20963541666667 0.06623376623376342  34.9375 0.06623376623376342  L 40.3125 0.06623376623376342  C 41.040364583333336 0.06623376623376342  41.670247395833336 0.2759740259740209  42.2021484375 0.6954545454545471  C 42.73404947916667 1.114935064935062  43 1.6116883116883076  43 2.1857142857142837  L 43 48.81428571428572  C 43 49.38831168831169  42.73404947916667 49.88506493506493  42.2021484375 50.304545454545455  C 41.670247395833336 50.72402597402598  41.040364583333336 50.933766233766235  40.3125 50.933766233766235  L 34.9375 50.933766233766235  C 34.20963541666667 50.933766233766235  33.57975260416667 50.72402597402598  33.0478515625 50.304545454545455  C 32.51595052083333 49.88506493506493  32.25 49.38831168831169  32 48.81428571428572  L 32 26.361038961038965  C 32.138020833333336 26.581818181818182  31.9560546875 26.79155844155844  31.7041015625 26.99025974025974  Z " fill-rule="nonzero" fill="rgba(0, 0, 0, 1)" stroke="none" transform="matrix(1 0 0 1 281 585 )" class="fill" />
    <path d="M 31.7041015625 26.99025974025974  L 1.8896484375 50.503246753246756  C 1.3577473958333335 50.92272727272727  0.9098307291666669 51.06623376623377  0.5458984375000001 50.933766233766235  C 0.1819661458333334 50.801298701298705  0 50.44805194805195  0 49.874025974025976  L 0 1.1259740259740236  C 0 0.5519480519480474  0.1819661458333334 0.19870129870129594  0.5458984375000001 0.06623376623376342  C 0.9098307291666669 -0.06623376623376909  1.3577473958333335 0.07727272727272494  1.8896484375 0.4967532467532455  L 31.7041015625 24.00974025974026  C 31.9560546875 24.20844155844156  32.138020833333336 24.418181818181818  32 24.638961038961043  L 32 2.1857142857142837  C 32.25 1.6116883116883076  32.51595052083333 1.114935064935062  33.0478515625 0.6954545454545471  C 33.57975260416667 0.2759740259740209  34.20963541666667 0.06623376623376342  34.9375 0.06623376623376342  L 40.3125 0.06623376623376342  C 41.040364583333336 0.06623376623376342  41.670247395833336 0.2759740259740209  42.2021484375 0.6954545454545471  C 42.73404947916667 1.114935064935062  43 1.6116883116883076  43 2.1857142857142837  L 43 48.81428571428572  C 43 49.38831168831169  42.73404947916667 49.88506493506493  42.2021484375 50.304545454545455  C 41.670247395833336 50.72402597402598  41.040364583333336 50.933766233766235  40.3125 50.933766233766235  L 34.9375 50.933766233766235  C 34.20963541666667 50.933766233766235  33.57975260416667 50.72402597402598  33.0478515625 50.304545454545455  C 32.51595052083333 49.88506493506493  32.25 49.38831168831169  32 48.81428571428572  L 32 26.361038961038965  C 32.138020833333336 26.581818181818182  31.9560546875 26.79155844155844  31.7041015625 26.99025974025974  Z " stroke-width="0" stroke-dasharray="0" stroke="rgba(255, 255, 255, 0)" fill="none" transform="matrix(1 0 0 1 281 585 )" class="stroke" mask="url(#Clip257)" />
  </g>
</svg>