<?xml version="1.0" encoding="utf-8"?>
<svg version="1.1" xmlns:xlink="http://www.w3.org/1999/xlink" width="28px" height="36px" xmlns="http://www.w3.org/2000/svg">
  <defs>
    <pattern id="BGPattern" patternUnits="userSpaceOnUse" alignment="0 0" imageRepeat="None" />
    <mask fill="white" id="Clip286">
      <path d="M 0.2968750000000009 11.947500000000002  C 0.0989583333333326 12.232499999999998  0 12.569999999999999  0 12.959999999999999  C 0 13.349999999999996  0.0989583333333326 13.687499999999996  0.2968750000000009 13.972500000000002  L 8.296875 25.4925  C 8.494791666666666 25.777499999999996  8.729166666666664 25.919999999999998  9 25.919999999999998  C 9.270833333333332 25.919999999999998  9.505208333333332 25.777499999999996  9.703125 25.4925  C 9.901041666666663 25.2075  9.999999999999998 24.869999999999997  9.999999999999998 24.479999999999997  L 9.999999999999998 18.72  L 13.499999999999998 18.72  C 14.520833333333332 18.72  15.43489583333333 18.765  16.2421875 18.854999999999997  C 17.049479166666668 18.945  17.8515625 19.106250000000003  18.6484375 19.338749999999997  C 19.4453125 19.57125  20.13802083333333 19.89  20.7265625 20.294999999999998  C 21.315104166666668 20.7  21.864583333333332 21.22125  22.375 21.85875  C 22.885416666666668 22.496249999999996  23.302083333333332 23.253750000000004  23.625 24.131249999999998  C 23.947916666666668 25.00875  24.200520833333332 26.047499999999996  24.3828125 27.2475  C 24.565104166666668 28.447499999999998  24.65625 29.805000000000003  24.65625 31.32  C 24.65625 32.145  24.630208333333332 33.0675  24.578125 34.0875  C 24.578125 34.1775  24.565104166666668 34.35375  24.5390625 34.61625  C 24.513020833333332 34.878750000000004  24.5 35.0775  24.5 35.2125  C 24.5 35.4375  24.544270833333332 35.625  24.6328125 35.775  C 24.721354166666664 35.925  24.84375 36  25 36  C 25.166666666666668 36  25.3125 35.8725  25.4375 35.6175  C 25.510416666666668 35.4825  25.578125 35.3175  25.640625 35.1225  C 25.703125 34.9275  25.7734375 34.7025  25.8515625 34.4475  C 25.9296875 34.1925  25.984375 34.0125  26.015625 33.9075  C 27.338541666666668 29.6325  28 26.249999999999993  28 23.759999999999998  C 28 20.775  27.723958333333336 18.277499999999996  27.171875 16.267500000000002  C 25.484375 10.2225  20.927083333333336 7.199999999999998  13.499999999999998 7.199999999999998  L 9.999999999999998 7.199999999999998  L 9.999999999999998 1.4400000000000013  C 9.999999999999998 1.0499999999999963  9.901041666666663 0.7124999999999955  9.703125 0.4274999999999989  C 9.505208333333332 0.1424999999999983  9.270833333333332 0  9 0  C 8.729166666666664 0  8.494791666666666 0.1424999999999983  8.296875 0.4274999999999989  L 0.2968750000000009 11.947500000000002  Z " fill-rule="evenodd" />
    </mask>
  </defs>
  <g transform="matrix(1 0 0 1 -198 -326 )">
    <path d="M 0.2968750000000009 11.947500000000002  C 0.0989583333333326 12.232499999999998  0 12.569999999999999  0 12.959999999999999  C 0 13.349999999999996  0.0989583333333326 13.687499999999996  0.2968750000000009 13.972500000000002  L 8.296875 25.4925  C 8.494791666666666 25.777499999999996  8.729166666666664 25.919999999999998  9 25.919999999999998  C 9.270833333333332 25.919999999999998  9.505208333333332 25.777499999999996  9.703125 25.4925  C 9.901041666666663 25.2075  9.999999999999998 24.869999999999997  9.999999999999998 24.479999999999997  L 9.999999999999998 18.72  L 13.499999999999998 18.72  C 14.520833333333332 18.72  15.43489583333333 18.765  16.2421875 18.854999999999997  C 17.049479166666668 18.945  17.8515625 19.106250000000003  18.6484375 19.338749999999997  C 19.4453125 19.57125  20.13802083333333 19.89  20.7265625 20.294999999999998  C 21.315104166666668 20.7  21.864583333333332 21.22125  22.375 21.85875  C 22.885416666666668 22.496249999999996  23.302083333333332 23.253750000000004  23.625 24.131249999999998  C 23.947916666666668 25.00875  24.200520833333332 26.047499999999996  24.3828125 27.2475  C 24.565104166666668 28.447499999999998  24.65625 29.805000000000003  24.65625 31.32  C 24.65625 32.145  24.630208333333332 33.0675  24.578125 34.0875  C 24.578125 34.1775  24.565104166666668 34.35375  24.5390625 34.61625  C 24.513020833333332 34.878750000000004  24.5 35.0775  24.5 35.2125  C 24.5 35.4375  24.544270833333332 35.625  24.6328125 35.775  C 24.721354166666664 35.925  24.84375 36  25 36  C 25.166666666666668 36  25.3125 35.8725  25.4375 35.6175  C 25.510416666666668 35.4825  25.578125 35.3175  25.640625 35.1225  C 25.703125 34.9275  25.7734375 34.7025  25.8515625 34.4475  C 25.9296875 34.1925  25.984375 34.0125  26.015625 33.9075  C 27.338541666666668 29.6325  28 26.249999999999993  28 23.759999999999998  C 28 20.775  27.723958333333336 18.277499999999996  27.171875 16.267500000000002  C 25.484375 10.2225  20.927083333333336 7.199999999999998  13.499999999999998 7.199999999999998  L 9.999999999999998 7.199999999999998  L 9.999999999999998 1.4400000000000013  C 9.999999999999998 1.0499999999999963  9.901041666666663 0.7124999999999955  9.703125 0.4274999999999989  C 9.505208333333332 0.1424999999999983  9.270833333333332 0  9 0  C 8.729166666666664 0  8.494791666666666 0.1424999999999983  8.296875 0.4274999999999989  L 0.2968750000000009 11.947500000000002  Z " fill-rule="nonzero" fill="rgba(255, 255, 255, 1)" stroke="none" transform="matrix(1 0 0 1 198 326 )" class="fill" />
    <path d="M 0.2968750000000009 11.947500000000002  C 0.0989583333333326 12.232499999999998  0 12.569999999999999  0 12.959999999999999  C 0 13.349999999999996  0.0989583333333326 13.687499999999996  0.2968750000000009 13.972500000000002  L 8.296875 25.4925  C 8.494791666666666 25.777499999999996  8.729166666666664 25.919999999999998  9 25.919999999999998  C 9.270833333333332 25.919999999999998  9.505208333333332 25.777499999999996  9.703125 25.4925  C 9.901041666666663 25.2075  9.999999999999998 24.869999999999997  9.999999999999998 24.479999999999997  L 9.999999999999998 18.72  L 13.499999999999998 18.72  C 14.520833333333332 18.72  15.43489583333333 18.765  16.2421875 18.854999999999997  C 17.049479166666668 18.945  17.8515625 19.106250000000003  18.6484375 19.338749999999997  C 19.4453125 19.57125  20.13802083333333 19.89  20.7265625 20.294999999999998  C 21.315104166666668 20.7  21.864583333333332 21.22125  22.375 21.85875  C 22.885416666666668 22.496249999999996  23.302083333333332 23.253750000000004  23.625 24.131249999999998  C 23.947916666666668 25.00875  24.200520833333332 26.047499999999996  24.3828125 27.2475  C 24.565104166666668 28.447499999999998  24.65625 29.805000000000003  24.65625 31.32  C 24.65625 32.145  24.630208333333332 33.0675  24.578125 34.0875  C 24.578125 34.1775  24.565104166666668 34.35375  24.5390625 34.61625  C 24.513020833333332 34.878750000000004  24.5 35.0775  24.5 35.2125  C 24.5 35.4375  24.544270833333332 35.625  24.6328125 35.775  C 24.721354166666664 35.925  24.84375 36  25 36  C 25.166666666666668 36  25.3125 35.8725  25.4375 35.6175  C 25.510416666666668 35.4825  25.578125 35.3175  25.640625 35.1225  C 25.703125 34.9275  25.7734375 34.7025  25.8515625 34.4475  C 25.9296875 34.1925  25.984375 34.0125  26.015625 33.9075  C 27.338541666666668 29.6325  28 26.249999999999993  28 23.759999999999998  C 28 20.775  27.723958333333336 18.277499999999996  27.171875 16.267500000000002  C 25.484375 10.2225  20.927083333333336 7.199999999999998  13.499999999999998 7.199999999999998  L 9.999999999999998 7.199999999999998  L 9.999999999999998 1.4400000000000013  C 9.999999999999998 1.0499999999999963  9.901041666666663 0.7124999999999955  9.703125 0.4274999999999989  C 9.505208333333332 0.1424999999999983  9.270833333333332 0  9 0  C 8.729166666666664 0  8.494791666666666 0.1424999999999983  8.296875 0.4274999999999989  L 0.2968750000000009 11.947500000000002  Z " stroke-width="2" stroke-dasharray="0" stroke="rgba(0, 0, 0, 1)" fill="none" transform="matrix(1 0 0 1 198 326 )" class="stroke" mask="url(#Clip286)" />
  </g>
</svg>