<?xml version="1.0" encoding="utf-8"?>
<svg version="1.1" xmlns:xlink="http://www.w3.org/1999/xlink" width="28px" height="36px" xmlns="http://www.w3.org/2000/svg">
  <defs>
    <pattern id="BGPattern" patternUnits="userSpaceOnUse" alignment="0 0" imageRepeat="None" />
    <mask fill="white" id="Clip287">
      <path d="M 27.703125 11.947500000000002  C 27.901041666666668 12.232499999999998  28 12.569999999999999  28 12.959999999999999  C 28 13.349999999999996  27.901041666666668 13.687499999999996  27.703125 13.972500000000002  L 19.703125 25.4925  C 19.505208333333336 25.777499999999996  19.270833333333336 25.919999999999998  19 25.919999999999998  C 18.729166666666668 25.919999999999998  18.494791666666668 25.777499999999996  18.296875 25.4925  C 18.098958333333336 25.2075  18 24.869999999999997  18 24.479999999999997  L 18 18.72  L 14.500000000000002 18.72  C 13.479166666666668 18.72  12.565104166666668 18.765  11.7578125 18.854999999999997  C 10.950520833333334 18.945  10.1484375 19.106250000000003  9.3515625 19.338749999999997  C 8.5546875 19.57125  7.861979166666668 19.89  7.2734375 20.294999999999998  C 6.684895833333334 20.7  6.135416666666667 21.22125  5.625 21.85875  C 5.114583333333334 22.496249999999996  4.697916666666667 23.253750000000004  4.375 24.131249999999998  C 4.052083333333334 25.00875  3.799479166666667 26.047499999999996  3.6171875 27.2475  C 3.4348958333333335 28.447499999999998  3.34375 29.805000000000003  3.34375 31.32  C 3.34375 32.145  3.369791666666667 33.0675  3.421875 34.0875  C 3.4218750000000004 34.1775  3.434895833333334 34.35375  3.4609375 34.61625  C 3.486979166666667 34.878750000000004  3.5 35.0775  3.5 35.2125  C 3.5 35.4375  3.455729166666667 35.625  3.3671875 35.775  C 3.278645833333334 35.925  3.1562500000000004 36  3 36  C 2.8333333333333335 36  2.6875 35.8725  2.5625 35.6175  C 2.4895833333333335 35.4825  2.421875 35.3175  2.359375 35.1225  C 2.296875 34.9275  2.2265625 34.7025  2.1484375 34.4475  C 2.0703125 34.1925  2.015625 34.0125  1.984375 33.9075  C 0.6614583333333333 29.6325  0 26.249999999999993  0 23.759999999999998  C 0 20.775  0.27604166666666663 18.277499999999996  0.828125 16.267500000000002  C 2.515625 10.2225  7.072916666666666 7.199999999999998  14.500000000000002 7.199999999999998  L 18 7.199999999999998  L 18 1.4400000000000013  C 18 1.0499999999999963  18.098958333333336 0.7124999999999955  18.296875 0.4274999999999989  C 18.494791666666668 0.1424999999999983  18.729166666666668 0  19 0  C 19.270833333333336 0  19.505208333333336 0.1424999999999983  19.703125 0.4274999999999989  L 27.703125 11.947500000000002  Z " fill-rule="evenodd" />
    </mask>
  </defs>
  <g transform="matrix(1 0 0 1 -182 -346 )">
    <path d="M 27.703125 11.947500000000002  C 27.901041666666668 12.232499999999998  28 12.569999999999999  28 12.959999999999999  C 28 13.349999999999996  27.901041666666668 13.687499999999996  27.703125 13.972500000000002  L 19.703125 25.4925  C 19.505208333333336 25.777499999999996  19.270833333333336 25.919999999999998  19 25.919999999999998  C 18.729166666666668 25.919999999999998  18.494791666666668 25.777499999999996  18.296875 25.4925  C 18.098958333333336 25.2075  18 24.869999999999997  18 24.479999999999997  L 18 18.72  L 14.500000000000002 18.72  C 13.479166666666668 18.72  12.565104166666668 18.765  11.7578125 18.854999999999997  C 10.950520833333334 18.945  10.1484375 19.106250000000003  9.3515625 19.338749999999997  C 8.5546875 19.57125  7.861979166666668 19.89  7.2734375 20.294999999999998  C 6.684895833333334 20.7  6.135416666666667 21.22125  5.625 21.85875  C 5.114583333333334 22.496249999999996  4.697916666666667 23.253750000000004  4.375 24.131249999999998  C 4.052083333333334 25.00875  3.799479166666667 26.047499999999996  3.6171875 27.2475  C 3.4348958333333335 28.447499999999998  3.34375 29.805000000000003  3.34375 31.32  C 3.34375 32.145  3.369791666666667 33.0675  3.421875 34.0875  C 3.4218750000000004 34.1775  3.434895833333334 34.35375  3.4609375 34.61625  C 3.486979166666667 34.878750000000004  3.5 35.0775  3.5 35.2125  C 3.5 35.4375  3.455729166666667 35.625  3.3671875 35.775  C 3.278645833333334 35.925  3.1562500000000004 36  3 36  C 2.8333333333333335 36  2.6875 35.8725  2.5625 35.6175  C 2.4895833333333335 35.4825  2.421875 35.3175  2.359375 35.1225  C 2.296875 34.9275  2.2265625 34.7025  2.1484375 34.4475  C 2.0703125 34.1925  2.015625 34.0125  1.984375 33.9075  C 0.6614583333333333 29.6325  0 26.249999999999993  0 23.759999999999998  C 0 20.775  0.27604166666666663 18.277499999999996  0.828125 16.267500000000002  C 2.515625 10.2225  7.072916666666666 7.199999999999998  14.500000000000002 7.199999999999998  L 18 7.199999999999998  L 18 1.4400000000000013  C 18 1.0499999999999963  18.098958333333336 0.7124999999999955  18.296875 0.4274999999999989  C 18.494791666666668 0.1424999999999983  18.729166666666668 0  19 0  C 19.270833333333336 0  19.505208333333336 0.1424999999999983  19.703125 0.4274999999999989  L 27.703125 11.947500000000002  Z " fill-rule="nonzero" fill="rgba(255, 255, 255, 1)" stroke="none" transform="matrix(1 0 0 1 182 346 )" class="fill" />
    <path d="M 27.703125 11.947500000000002  C 27.901041666666668 12.232499999999998  28 12.569999999999999  28 12.959999999999999  C 28 13.349999999999996  27.901041666666668 13.687499999999996  27.703125 13.972500000000002  L 19.703125 25.4925  C 19.505208333333336 25.777499999999996  19.270833333333336 25.919999999999998  19 25.919999999999998  C 18.729166666666668 25.919999999999998  18.494791666666668 25.777499999999996  18.296875 25.4925  C 18.098958333333336 25.2075  18 24.869999999999997  18 24.479999999999997  L 18 18.72  L 14.500000000000002 18.72  C 13.479166666666668 18.72  12.565104166666668 18.765  11.7578125 18.854999999999997  C 10.950520833333334 18.945  10.1484375 19.106250000000003  9.3515625 19.338749999999997  C 8.5546875 19.57125  7.861979166666668 19.89  7.2734375 20.294999999999998  C 6.684895833333334 20.7  6.135416666666667 21.22125  5.625 21.85875  C 5.114583333333334 22.496249999999996  4.697916666666667 23.253750000000004  4.375 24.131249999999998  C 4.052083333333334 25.00875  3.799479166666667 26.047499999999996  3.6171875 27.2475  C 3.4348958333333335 28.447499999999998  3.34375 29.805000000000003  3.34375 31.32  C 3.34375 32.145  3.369791666666667 33.0675  3.421875 34.0875  C 3.4218750000000004 34.1775  3.434895833333334 34.35375  3.4609375 34.61625  C 3.486979166666667 34.878750000000004  3.5 35.0775  3.5 35.2125  C 3.5 35.4375  3.455729166666667 35.625  3.3671875 35.775  C 3.278645833333334 35.925  3.1562500000000004 36  3 36  C 2.8333333333333335 36  2.6875 35.8725  2.5625 35.6175  C 2.4895833333333335 35.4825  2.421875 35.3175  2.359375 35.1225  C 2.296875 34.9275  2.2265625 34.7025  2.1484375 34.4475  C 2.0703125 34.1925  2.015625 34.0125  1.984375 33.9075  C 0.6614583333333333 29.6325  0 26.249999999999993  0 23.759999999999998  C 0 20.775  0.27604166666666663 18.277499999999996  0.828125 16.267500000000002  C 2.515625 10.2225  7.072916666666666 7.199999999999998  14.500000000000002 7.199999999999998  L 18 7.199999999999998  L 18 1.4400000000000013  C 18 1.0499999999999963  18.098958333333336 0.7124999999999955  18.296875 0.4274999999999989  C 18.494791666666668 0.1424999999999983  18.729166666666668 0  19 0  C 19.270833333333336 0  19.505208333333336 0.1424999999999983  19.703125 0.4274999999999989  L 27.703125 11.947500000000002  Z " stroke-width="2" stroke-dasharray="0" stroke="rgba(0, 0, 0, 1)" fill="none" transform="matrix(1 0 0 1 182 346 )" class="stroke" mask="url(#Clip287)" />
  </g>
</svg>