<?xml version="1.0" encoding="utf-8"?>
<svg version="1.1" xmlns:xlink="http://www.w3.org/1999/xlink" width="30px" height="31px" xmlns="http://www.w3.org/2000/svg">
  <defs>
    <pattern id="BGPattern" patternUnits="userSpaceOnUse" alignment="0 0" imageRepeat="None" />
    <mask fill="white" id="Clip270">
      <path d="M 0 10.5  C 0 4.619999999999999  4.3999999999999995 0  10 0  C 15.600000000000001 0  20 4.619999999999999  20 10.5  C 20 16.38  15.600000000000001 21  10 21  C 4.3999999999999995 21  0 16.38  0 10.5  Z " fill-rule="evenodd" />
    </mask>
  </defs>
  <g transform="matrix(1 0 0 1 -150 -254 )">
    <path d="M 0 10.5  C 0 4.619999999999999  4.3999999999999995 0  10 0  C 15.600000000000001 0  20 4.619999999999999  20 10.5  C 20 16.38  15.600000000000001 21  10 21  C 4.3999999999999995 21  0 16.38  0 10.5  Z " fill-rule="nonzero" fill="rgba(0, 194, 255, 1)" stroke="none" transform="matrix(1 0 0 1 154 258 )" class="fill" />
    <path d="M 0 10.5  C 0 4.619999999999999  4.3999999999999995 0  10 0  C 15.600000000000001 0  20 4.619999999999999  20 10.5  C 20 16.38  15.600000000000001 21  10 21  C 4.3999999999999995 21  0 16.38  0 10.5  Z " stroke-width="2" stroke-dasharray="0" stroke="rgba(255, 255, 255, 1)" fill="none" transform="matrix(1 0 0 1 154 258 )" class="stroke" mask="url(#Clip270)" />
  </g>
  <style>svg { filter: drop-shadow(1px 1px 2.5px rgba(0, 0, 0, 0.6980392156862745)); }</style>
</svg>