<?xml version="1.0" encoding="utf-8"?>
<svg version="1.1" xmlns:xlink="http://www.w3.org/1999/xlink" width="14px" height="15px" xmlns="http://www.w3.org/2000/svg">
  <defs>
    <pattern id="BGPattern" patternUnits="userSpaceOnUse" alignment="0 0" imageRepeat="None" />
    <mask fill="white" id="Clip272">
      <path d="M 0 7.5  C 0 3.3  3.0799999999999996 0  7 0  C 10.92 0  14 3.3  14 7.5  C 14 11.700000000000001  10.92 15  7 15  C 3.0799999999999996 15  0 11.700000000000001  0 7.5  Z " fill-rule="evenodd" />
    </mask>
  </defs>
  <g transform="matrix(1 0 0 1 -74 -61 )">
    <path d="M 0 7.5  C 0 3.3  3.0799999999999996 0  7 0  C 10.92 0  14 3.3  14 7.5  C 14 11.700000000000001  10.92 15  7 15  C 3.0799999999999996 15  0 11.700000000000001  0 7.5  Z " fill-rule="nonzero" fill="rgba(255, 255, 255, 1)" stroke="none" transform="matrix(1 0 0 1 74 61 )" class="fill" />
    <path d="M 0 7.5  C 0 3.3  3.0799999999999996 0  7 0  C 10.92 0  14 3.3  14 7.5  C 14 11.700000000000001  10.92 15  7 15  C 3.0799999999999996 15  0 11.700000000000001  0 7.5  Z " stroke-width="2" stroke-dasharray="0" stroke="rgba(121, 121, 121, 1)" fill="none" transform="matrix(1 0 0 1 74 61 )" class="stroke" mask="url(#Clip272)" />
  </g>
</svg>