<?xml version="1.0" encoding="utf-8"?>
<svg version="1.1" xmlns:xlink="http://www.w3.org/1999/xlink" width="18px" height="21px" xmlns="http://www.w3.org/2000/svg">
  <defs>
    <pattern id="BGPattern" patternUnits="userSpaceOnUse" alignment="0 0" imageRepeat="None" />
    <mask fill="white" id="Clip274">
      <path d="M 17.980837473385378 0.7979403409090903  C 18.010645848119236 1.0017755681818163  17.982966643009227 1.1981534090909083  17.897799858055357 1.3870738636363633  L 9.721788502484031 20.477982954545453  C 9.577004968062457 20.825994318181817  9.334279630943932 21  8.99361249112846 21  C 8.951029098651528 21  8.887154009936125 20.990056818181817  8.801987224982257 20.970170454545453  C 8.614620298083748 20.920454545454547  8.463449254790632 20.80859375  8.34847409510291 20.634588068181817  C 8.233498935415188 20.460582386363637  8.176011355571326 20.264204545454547  8.176011355571326 20.045454545454547  L 8.176011355571326 11.454545454545453  L 0.8176011355571328 11.454545454545453  C 0.6302342086586232 11.454545454545453  0.46202980837473395 11.387428977272727  0.3129879347054649 11.253196022727273  C 0.16394606103619586 11.11896306818182  0.0681334279630944 10.94247159090909  0.0255500354861604 10.723721590909093  C -0.0170333569907736 10.504971590909092  0 10.296164772727272  0.0766501064584812 10.097301136363637  C 0.15330021291696241 9.8984375  0.276792051100071 9.749289772727272  0.44712562100780695 9.649857954545453  L 16.799148332150462 0.10440340909090973  C 16.90986515259049 0.03480113636363502  17.0333569907736 0  17.169623846699785 0  C 17.39957416607523 0  17.591199432221433 0.0944602272727253  17.744499645138397 0.2833806818181829  C 17.8722498225692 0.4225852272727253  17.951029098651528 0.5941051136363619  17.980837473385378 0.7979403409090903  Z " fill-rule="evenodd" />
    </mask>
  </defs>
  <g transform="matrix(1 0 0 1 -69 -121 )">
    <path d="M 17.980837473385378 0.7979403409090903  C 18.010645848119236 1.0017755681818163  17.982966643009227 1.1981534090909083  17.897799858055357 1.3870738636363633  L 9.721788502484031 20.477982954545453  C 9.577004968062457 20.825994318181817  9.334279630943932 21  8.99361249112846 21  C 8.951029098651528 21  8.887154009936125 20.990056818181817  8.801987224982257 20.970170454545453  C 8.614620298083748 20.920454545454547  8.463449254790632 20.80859375  8.34847409510291 20.634588068181817  C 8.233498935415188 20.460582386363637  8.176011355571326 20.264204545454547  8.176011355571326 20.045454545454547  L 8.176011355571326 11.454545454545453  L 0.8176011355571328 11.454545454545453  C 0.6302342086586232 11.454545454545453  0.46202980837473395 11.387428977272727  0.3129879347054649 11.253196022727273  C 0.16394606103619586 11.11896306818182  0.0681334279630944 10.94247159090909  0.0255500354861604 10.723721590909093  C -0.0170333569907736 10.504971590909092  0 10.296164772727272  0.0766501064584812 10.097301136363637  C 0.15330021291696241 9.8984375  0.276792051100071 9.749289772727272  0.44712562100780695 9.649857954545453  L 16.799148332150462 0.10440340909090973  C 16.90986515259049 0.03480113636363502  17.0333569907736 0  17.169623846699785 0  C 17.39957416607523 0  17.591199432221433 0.0944602272727253  17.744499645138397 0.2833806818181829  C 17.8722498225692 0.4225852272727253  17.951029098651528 0.5941051136363619  17.980837473385378 0.7979403409090903  Z " fill-rule="nonzero" fill="rgba(217, 0, 27, 1)" stroke="none" transform="matrix(1 0 0 1 69 121 )" class="fill" />
    <path d="M 17.980837473385378 0.7979403409090903  C 18.010645848119236 1.0017755681818163  17.982966643009227 1.1981534090909083  17.897799858055357 1.3870738636363633  L 9.721788502484031 20.477982954545453  C 9.577004968062457 20.825994318181817  9.334279630943932 21  8.99361249112846 21  C 8.951029098651528 21  8.887154009936125 20.990056818181817  8.801987224982257 20.970170454545453  C 8.614620298083748 20.920454545454547  8.463449254790632 20.80859375  8.34847409510291 20.634588068181817  C 8.233498935415188 20.460582386363637  8.176011355571326 20.264204545454547  8.176011355571326 20.045454545454547  L 8.176011355571326 11.454545454545453  L 0.8176011355571328 11.454545454545453  C 0.6302342086586232 11.454545454545453  0.46202980837473395 11.387428977272727  0.3129879347054649 11.253196022727273  C 0.16394606103619586 11.11896306818182  0.0681334279630944 10.94247159090909  0.0255500354861604 10.723721590909093  C -0.0170333569907736 10.504971590909092  0 10.296164772727272  0.0766501064584812 10.097301136363637  C 0.15330021291696241 9.8984375  0.276792051100071 9.749289772727272  0.44712562100780695 9.649857954545453  L 16.799148332150462 0.10440340909090973  C 16.90986515259049 0.03480113636363502  17.0333569907736 0  17.169623846699785 0  C 17.39957416607523 0  17.591199432221433 0.0944602272727253  17.744499645138397 0.2833806818181829  C 17.8722498225692 0.4225852272727253  17.951029098651528 0.5941051136363619  17.980837473385378 0.7979403409090903  Z " stroke-width="2" stroke-dasharray="0" stroke="rgba(0, 0, 0, 1)" fill="none" transform="matrix(1 0 0 1 69 121 )" class="stroke" mask="url(#Clip274)" />
  </g>
</svg>