<?xml version="1.0" encoding="utf-8"?>
<svg version="1.1" xmlns:xlink="http://www.w3.org/1999/xlink" width="35px" height="32px" xmlns="http://www.w3.org/2000/svg">
  <defs>
    <pattern id="BGPattern" patternUnits="userSpaceOnUse" alignment="0 0" imageRepeat="None" />
    <mask fill="white" id="Clip293">
      <path d="M 34.36197916666667 0.5384615384615401  C 34.787326388888886 0.8974358974358942  35 1.3333333333333321  35 1.8461538461538467  L 35 23.384615384615387  C 35 24.025641025641022  34.74175347222222 24.596153846153847  34.22526041666667 25.096153846153847  C 33.708767361111114 25.596153846153847  33.05555555555556 25.98397435897436  32.265625 26.259615384615387  C 31.47569444444445 26.53525641025641  30.68956163194445 26.740384615384613  29.9072265625 26.875  C 29.124891493055557 27.009615384615387  28.391927083333332 27.076923076923077  27.708333333333332 27.076923076923077  C 27.024739583333332 27.076923076923077  26.291775173611114 27.009615384615387  25.509440104166668 26.875  C 24.72710503472222 26.740384615384613  23.94097222222222 26.53525641025641  23.151041666666668 26.259615384615387  C 22.361111111111114 25.98397435897436  21.707899305555557 25.596153846153847  21.19140625 25.096153846153847  C 20.674913194444446 24.596153846153847  20.416666666666668 24.025641025641022  20.416666666666668 23.384615384615387  C 20.416666666666668 22.743589743589745  20.674913194444446 22.173076923076923  21.19140625 21.673076923076923  C 21.707899305555557 21.173076923076923  22.361111111111114 20.78525641025641  23.151041666666668 20.509615384615387  C 23.94097222222222 20.233974358974358  24.72710503472222 20.028846153846153  25.509440104166668 19.89423076923077  C 26.291775173611114 19.759615384615387  27.024739583333332 19.692307692307693  27.708333333333332 19.692307692307693  C 29.303385416666668 19.692307692307693  30.76171875 19.942307692307693  32 20.442307692307693  L 32 10.115384615384617  L 15 14.673076923076923  L 15 28.307692307692307  C 14.583333333333334 28.94871794871795  14.325086805555557 29.51923076923077  13.80859375 30.01923076923077  C 13.292100694444445 30.51923076923077  12.638888888888891 30.907051282051285  11.848958333333334 31.182692307692307  C 11.059027777777779 31.458333333333332  10.272894965277779 31.66346153846154  9.490559895833334 31.798076923076923  C 8.70822482638889 31.932692307692307  7.975260416666667 32  7.291666666666667 32  C 6.608072916666667 32  5.8751085069444455 31.932692307692307  5.0927734375 31.798076923076923  C 4.310438368055556 31.66346153846154  3.5243055555555562 31.458333333333332  2.734375 31.182692307692307  C 1.9444444444444446 30.907051282051285  1.2912326388888888 30.51923076923077  0.7747395833333334 30.01923076923077  C 0.25824652777777773 29.51923076923077  0 28.94871794871795  0 28.307692307692307  C 0 27.666666666666668  0.25824652777777773 27.096153846153847  0.7747395833333334 26.596153846153847  C 1.2912326388888888 26.096153846153847  1.9444444444444446 25.708333333333332  2.734375 25.432692307692307  C 3.5243055555555562 25.157051282051285  4.310438368055556 24.951923076923077  5.0927734375 24.817307692307693  C 5.8751085069444455 24.682692307692307  6.608072916666667 24.615384615384613  7.291666666666667 24.615384615384613  C 8.88671875 24.615384615384613  10.345052083333334 24.865384615384613  12 25.365384615384613  L 12 6.76923076923077  C 11.666666666666666 6.371794871794869  11.810980902777779 6.009615384615383  12.099609375 5.682692307692307  C 12.388237847222225 5.35576923076923  12.760416666666666 5.128205128205124  13.216145833333334 5  L 32.17447916666667 0.07692307692307665  C 32.35677083333333 0.02564102564102555  32.56944444444445 0  32.8125 0  C 33.42013888888889 0  33.93663194444445 0.17948717948717885  34.36197916666667 0.5384615384615401  Z " fill-rule="evenodd" />
    </mask>
  </defs>
  <g transform="matrix(1 0 0 1 -264 -758 )">
    <path d="M 34.36197916666667 0.5384615384615401  C 34.787326388888886 0.8974358974358942  35 1.3333333333333321  35 1.8461538461538467  L 35 23.384615384615387  C 35 24.025641025641022  34.74175347222222 24.596153846153847  34.22526041666667 25.096153846153847  C 33.708767361111114 25.596153846153847  33.05555555555556 25.98397435897436  32.265625 26.259615384615387  C 31.47569444444445 26.53525641025641  30.68956163194445 26.740384615384613  29.9072265625 26.875  C 29.124891493055557 27.009615384615387  28.391927083333332 27.076923076923077  27.708333333333332 27.076923076923077  C 27.024739583333332 27.076923076923077  26.291775173611114 27.009615384615387  25.509440104166668 26.875  C 24.72710503472222 26.740384615384613  23.94097222222222 26.53525641025641  23.151041666666668 26.259615384615387  C 22.361111111111114 25.98397435897436  21.707899305555557 25.596153846153847  21.19140625 25.096153846153847  C 20.674913194444446 24.596153846153847  20.416666666666668 24.025641025641022  20.416666666666668 23.384615384615387  C 20.416666666666668 22.743589743589745  20.674913194444446 22.173076923076923  21.19140625 21.673076923076923  C 21.707899305555557 21.173076923076923  22.361111111111114 20.78525641025641  23.151041666666668 20.509615384615387  C 23.94097222222222 20.233974358974358  24.72710503472222 20.028846153846153  25.509440104166668 19.89423076923077  C 26.291775173611114 19.759615384615387  27.024739583333332 19.692307692307693  27.708333333333332 19.692307692307693  C 29.303385416666668 19.692307692307693  30.76171875 19.942307692307693  32 20.442307692307693  L 32 10.115384615384617  L 15 14.673076923076923  L 15 28.307692307692307  C 14.583333333333334 28.94871794871795  14.325086805555557 29.51923076923077  13.80859375 30.01923076923077  C 13.292100694444445 30.51923076923077  12.638888888888891 30.907051282051285  11.848958333333334 31.182692307692307  C 11.059027777777779 31.458333333333332  10.272894965277779 31.66346153846154  9.490559895833334 31.798076923076923  C 8.70822482638889 31.932692307692307  7.975260416666667 32  7.291666666666667 32  C 6.608072916666667 32  5.8751085069444455 31.932692307692307  5.0927734375 31.798076923076923  C 4.310438368055556 31.66346153846154  3.5243055555555562 31.458333333333332  2.734375 31.182692307692307  C 1.9444444444444446 30.907051282051285  1.2912326388888888 30.51923076923077  0.7747395833333334 30.01923076923077  C 0.25824652777777773 29.51923076923077  0 28.94871794871795  0 28.307692307692307  C 0 27.666666666666668  0.25824652777777773 27.096153846153847  0.7747395833333334 26.596153846153847  C 1.2912326388888888 26.096153846153847  1.9444444444444446 25.708333333333332  2.734375 25.432692307692307  C 3.5243055555555562 25.157051282051285  4.310438368055556 24.951923076923077  5.0927734375 24.817307692307693  C 5.8751085069444455 24.682692307692307  6.608072916666667 24.615384615384613  7.291666666666667 24.615384615384613  C 8.88671875 24.615384615384613  10.345052083333334 24.865384615384613  12 25.365384615384613  L 12 6.76923076923077  C 11.666666666666666 6.371794871794869  11.810980902777779 6.009615384615383  12.099609375 5.682692307692307  C 12.388237847222225 5.35576923076923  12.760416666666666 5.128205128205124  13.216145833333334 5  L 32.17447916666667 0.07692307692307665  C 32.35677083333333 0.02564102564102555  32.56944444444445 0  32.8125 0  C 33.42013888888889 0  33.93663194444445 0.17948717948717885  34.36197916666667 0.5384615384615401  Z " fill-rule="nonzero" fill="rgba(166, 0, 139, 1)" stroke="none" transform="matrix(1 0 0 1 264 758 )" class="fill" />
    <path d="M 34.36197916666667 0.5384615384615401  C 34.787326388888886 0.8974358974358942  35 1.3333333333333321  35 1.8461538461538467  L 35 23.384615384615387  C 35 24.025641025641022  34.74175347222222 24.596153846153847  34.22526041666667 25.096153846153847  C 33.708767361111114 25.596153846153847  33.05555555555556 25.98397435897436  32.265625 26.259615384615387  C 31.47569444444445 26.53525641025641  30.68956163194445 26.740384615384613  29.9072265625 26.875  C 29.124891493055557 27.009615384615387  28.391927083333332 27.076923076923077  27.708333333333332 27.076923076923077  C 27.024739583333332 27.076923076923077  26.291775173611114 27.009615384615387  25.509440104166668 26.875  C 24.72710503472222 26.740384615384613  23.94097222222222 26.53525641025641  23.151041666666668 26.259615384615387  C 22.361111111111114 25.98397435897436  21.707899305555557 25.596153846153847  21.19140625 25.096153846153847  C 20.674913194444446 24.596153846153847  20.416666666666668 24.025641025641022  20.416666666666668 23.384615384615387  C 20.416666666666668 22.743589743589745  20.674913194444446 22.173076923076923  21.19140625 21.673076923076923  C 21.707899305555557 21.173076923076923  22.361111111111114 20.78525641025641  23.151041666666668 20.509615384615387  C 23.94097222222222 20.233974358974358  24.72710503472222 20.028846153846153  25.509440104166668 19.89423076923077  C 26.291775173611114 19.759615384615387  27.024739583333332 19.692307692307693  27.708333333333332 19.692307692307693  C 29.303385416666668 19.692307692307693  30.76171875 19.942307692307693  32 20.442307692307693  L 32 10.115384615384617  L 15 14.673076923076923  L 15 28.307692307692307  C 14.583333333333334 28.94871794871795  14.325086805555557 29.51923076923077  13.80859375 30.01923076923077  C 13.292100694444445 30.51923076923077  12.638888888888891 30.907051282051285  11.848958333333334 31.182692307692307  C 11.059027777777779 31.458333333333332  10.272894965277779 31.66346153846154  9.490559895833334 31.798076923076923  C 8.70822482638889 31.932692307692307  7.975260416666667 32  7.291666666666667 32  C 6.608072916666667 32  5.8751085069444455 31.932692307692307  5.0927734375 31.798076923076923  C 4.310438368055556 31.66346153846154  3.5243055555555562 31.458333333333332  2.734375 31.182692307692307  C 1.9444444444444446 30.907051282051285  1.2912326388888888 30.51923076923077  0.7747395833333334 30.01923076923077  C 0.25824652777777773 29.51923076923077  0 28.94871794871795  0 28.307692307692307  C 0 27.666666666666668  0.25824652777777773 27.096153846153847  0.7747395833333334 26.596153846153847  C 1.2912326388888888 26.096153846153847  1.9444444444444446 25.708333333333332  2.734375 25.432692307692307  C 3.5243055555555562 25.157051282051285  4.310438368055556 24.951923076923077  5.0927734375 24.817307692307693  C 5.8751085069444455 24.682692307692307  6.608072916666667 24.615384615384613  7.291666666666667 24.615384615384613  C 8.88671875 24.615384615384613  10.345052083333334 24.865384615384613  12 25.365384615384613  L 12 6.76923076923077  C 11.666666666666666 6.371794871794869  11.810980902777779 6.009615384615383  12.099609375 5.682692307692307  C 12.388237847222225 5.35576923076923  12.760416666666666 5.128205128205124  13.216145833333334 5  L 32.17447916666667 0.07692307692307665  C 32.35677083333333 0.02564102564102555  32.56944444444445 0  32.8125 0  C 33.42013888888889 0  33.93663194444445 0.17948717948717885  34.36197916666667 0.5384615384615401  Z " stroke-width="0" stroke-dasharray="0" stroke="rgba(255, 255, 255, 0)" fill="none" transform="matrix(1 0 0 1 264 758 )" class="stroke" mask="url(#Clip293)" />
  </g>
</svg>