<?xml version="1.0" encoding="utf-8"?>
<svg version="1.1" xmlns:xlink="http://www.w3.org/1999/xlink" width="29px" height="33px" xmlns="http://www.w3.org/2000/svg">
  <defs>
    <pattern id="BGPattern" patternUnits="userSpaceOnUse" alignment="0 0" imageRepeat="None" />
    <mask fill="white" id="Clip294">
      <path d="M 28.96912704045422 1.2539062499999991  C 29.0171516441921 1.5742187499999971  28.972557369292645 1.8828124999999987  28.835344215755853 2.1796874999999996  L 15.662881476224273 32.1796875  C 15.429619115211736 32.7265625  15.038561627631891 33  14.48970901348474 33  C 14.42110243671635 33  14.31819257156376 32.984375  14.18097941802697 32.953125  C 13.87911048024604 32.875  13.63555713271824 32.69921875  13.450319375443577 32.42578125  C 13.265081618168914 32.15234375  13.172462739531582 31.84375  13.172462739531582 31.5  L 13.172462739531582 18  L 1.3172462739531583 18  C 1.0153773361722263 18  0.7443813579370714 17.89453125  0.5042583392476935 17.68359375  C 0.26413532055831557 17.472656250000004  0.10977052282942987 17.195312499999996  0.0411639460610362 16.851562500000004  C -0.027442630707357467 16.5078125  0 16.1796875  0.12349183818310859 15.8671875  C 0.2469836763662172 15.554687499999998  0.4459427489945588 15.3203125  0.7203690560681335 15.164062499999998  L 27.0652945351313 0.164062500000001  C 27.243671634729125 0.05468749999999789  27.442630707357466 0  27.662171753016324 0  C 28.032647267565647 0  28.34137686302342 0.1484374999999969  28.58836053938964 0.44531250000000167  C 28.79418026969482 0.6640624999999969  28.92110243671635 0.9335937499999972  28.96912704045422 1.2539062499999991  Z " fill-rule="evenodd" />
    </mask>
  </defs>
  <g transform="matrix(1 0 0 1 -82 -760 )">
    <path d="M 28.96912704045422 1.2539062499999991  C 29.0171516441921 1.5742187499999971  28.972557369292645 1.8828124999999987  28.835344215755853 2.1796874999999996  L 15.662881476224273 32.1796875  C 15.429619115211736 32.7265625  15.038561627631891 33  14.48970901348474 33  C 14.42110243671635 33  14.31819257156376 32.984375  14.18097941802697 32.953125  C 13.87911048024604 32.875  13.63555713271824 32.69921875  13.450319375443577 32.42578125  C 13.265081618168914 32.15234375  13.172462739531582 31.84375  13.172462739531582 31.5  L 13.172462739531582 18  L 1.3172462739531583 18  C 1.0153773361722263 18  0.7443813579370714 17.89453125  0.5042583392476935 17.68359375  C 0.26413532055831557 17.472656250000004  0.10977052282942987 17.195312499999996  0.0411639460610362 16.851562500000004  C -0.027442630707357467 16.5078125  0 16.1796875  0.12349183818310859 15.8671875  C 0.2469836763662172 15.554687499999998  0.4459427489945588 15.3203125  0.7203690560681335 15.164062499999998  L 27.0652945351313 0.164062500000001  C 27.243671634729125 0.05468749999999789  27.442630707357466 0  27.662171753016324 0  C 28.032647267565647 0  28.34137686302342 0.1484374999999969  28.58836053938964 0.44531250000000167  C 28.79418026969482 0.6640624999999969  28.92110243671635 0.9335937499999972  28.96912704045422 1.2539062499999991  Z " fill-rule="nonzero" fill="rgba(255, 255, 255, 1)" stroke="none" transform="matrix(1 0 0 1 82 760 )" class="fill" />
    <path d="M 28.96912704045422 1.2539062499999991  C 29.0171516441921 1.5742187499999971  28.972557369292645 1.8828124999999987  28.835344215755853 2.1796874999999996  L 15.662881476224273 32.1796875  C 15.429619115211736 32.7265625  15.038561627631891 33  14.48970901348474 33  C 14.42110243671635 33  14.31819257156376 32.984375  14.18097941802697 32.953125  C 13.87911048024604 32.875  13.63555713271824 32.69921875  13.450319375443577 32.42578125  C 13.265081618168914 32.15234375  13.172462739531582 31.84375  13.172462739531582 31.5  L 13.172462739531582 18  L 1.3172462739531583 18  C 1.0153773361722263 18  0.7443813579370714 17.89453125  0.5042583392476935 17.68359375  C 0.26413532055831557 17.472656250000004  0.10977052282942987 17.195312499999996  0.0411639460610362 16.851562500000004  C -0.027442630707357467 16.5078125  0 16.1796875  0.12349183818310859 15.8671875  C 0.2469836763662172 15.554687499999998  0.4459427489945588 15.3203125  0.7203690560681335 15.164062499999998  L 27.0652945351313 0.164062500000001  C 27.243671634729125 0.05468749999999789  27.442630707357466 0  27.662171753016324 0  C 28.032647267565647 0  28.34137686302342 0.1484374999999969  28.58836053938964 0.44531250000000167  C 28.79418026969482 0.6640624999999969  28.92110243671635 0.9335937499999972  28.96912704045422 1.2539062499999991  Z " stroke-width="0" stroke-dasharray="0" stroke="rgba(255, 255, 255, 0)" fill="none" transform="matrix(1 0 0 1 82 760 )" class="stroke" mask="url(#Clip294)" />
  </g>
</svg>