<?xml version="1.0" encoding="utf-8"?>
<svg version="1.1" xmlns:xlink="http://www.w3.org/1999/xlink" width="28px" height="30px" xmlns="http://www.w3.org/2000/svg">
  <defs>
    <pattern id="BGPattern" patternUnits="userSpaceOnUse" alignment="0 0" imageRepeat="None" />
    <mask fill="white" id="Clip295">
      <path d="M 20.64453125 15.876623376623378  L 1.23046875 29.70779220779221  C 0.8841145833333334 29.954545454545457  0.5924479166666667 30.03896103896104  0.35546875000000006 29.961038961038962  C 0.11848958333333337 29.883116883116884  0 29.675324675324674  0 29.33766233766234  L 0 0.6623376623376609  C 0 0.324675324675322  0.11848958333333337 0.11688311688311526  0.35546875000000006 0.03896103896103731  C 0.5924479166666667 -0.03896103896104064  0.8841145833333334 0.04545454545454408  1.23046875 0.2922077922077915  L 20.64453125 14.123376623376622  C 20.80859375 14.240259740259742  20.927083333333336 14.363636363636363  21 14.493506493506494  L 21 1.2857142857142845  C 21 0.9480519480519456  21.173177083333332 0.6558441558441541  21.51953125 0.40909090909091006  C 21.865885416666668 0.16233766233765934  22.276041666666668 0.03896103896103731  22.75 0.03896103896103731  L 26.25 0.03896103896103731  C 26.723958333333336 0.03896103896103731  27.134114583333336 0.16233766233765934  27.48046875 0.40909090909091006  C 27.826822916666668 0.6558441558441541  28 0.9480519480519456  28 1.2857142857142845  L 28 28.714285714285715  C 28 29.051948051948052  27.826822916666668 29.344155844155843  27.48046875 29.59090909090909  C 27.134114583333336 29.83766233766234  26.723958333333336 29.961038961038962  26.25 29.961038961038962  L 22.75 29.961038961038962  C 22.276041666666668 29.961038961038962  21.865885416666668 29.83766233766234  21.51953125 29.59090909090909  C 21.173177083333332 29.344155844155843  21 29.051948051948052  21 28.714285714285715  L 21 15.50649350649351  C 20.927083333333336 15.636363636363637  20.80859375 15.759740259740258  20.64453125 15.876623376623378  Z " fill-rule="evenodd" />
    </mask>
  </defs>
  <g transform="matrix(1 0 0 1 -308 -640 )">
    <path d="M 20.64453125 15.876623376623378  L 1.23046875 29.70779220779221  C 0.8841145833333334 29.954545454545457  0.5924479166666667 30.03896103896104  0.35546875000000006 29.961038961038962  C 0.11848958333333337 29.883116883116884  0 29.675324675324674  0 29.33766233766234  L 0 0.6623376623376609  C 0 0.324675324675322  0.11848958333333337 0.11688311688311526  0.35546875000000006 0.03896103896103731  C 0.5924479166666667 -0.03896103896104064  0.8841145833333334 0.04545454545454408  1.23046875 0.2922077922077915  L 20.64453125 14.123376623376622  C 20.80859375 14.240259740259742  20.927083333333336 14.363636363636363  21 14.493506493506494  L 21 1.2857142857142845  C 21 0.9480519480519456  21.173177083333332 0.6558441558441541  21.51953125 0.40909090909091006  C 21.865885416666668 0.16233766233765934  22.276041666666668 0.03896103896103731  22.75 0.03896103896103731  L 26.25 0.03896103896103731  C 26.723958333333336 0.03896103896103731  27.134114583333336 0.16233766233765934  27.48046875 0.40909090909091006  C 27.826822916666668 0.6558441558441541  28 0.9480519480519456  28 1.2857142857142845  L 28 28.714285714285715  C 28 29.051948051948052  27.826822916666668 29.344155844155843  27.48046875 29.59090909090909  C 27.134114583333336 29.83766233766234  26.723958333333336 29.961038961038962  26.25 29.961038961038962  L 22.75 29.961038961038962  C 22.276041666666668 29.961038961038962  21.865885416666668 29.83766233766234  21.51953125 29.59090909090909  C 21.173177083333332 29.344155844155843  21 29.051948051948052  21 28.714285714285715  L 21 15.50649350649351  C 20.927083333333336 15.636363636363637  20.80859375 15.759740259740258  20.64453125 15.876623376623378  Z " fill-rule="nonzero" fill="rgba(0, 0, 0, 1)" stroke="none" transform="matrix(1 0 0 1 308 640 )" class="fill" />
    <path d="M 20.64453125 15.876623376623378  L 1.23046875 29.70779220779221  C 0.8841145833333334 29.954545454545457  0.5924479166666667 30.03896103896104  0.35546875000000006 29.961038961038962  C 0.11848958333333337 29.883116883116884  0 29.675324675324674  0 29.33766233766234  L 0 0.6623376623376609  C 0 0.324675324675322  0.11848958333333337 0.11688311688311526  0.35546875000000006 0.03896103896103731  C 0.5924479166666667 -0.03896103896104064  0.8841145833333334 0.04545454545454408  1.23046875 0.2922077922077915  L 20.64453125 14.123376623376622  C 20.80859375 14.240259740259742  20.927083333333336 14.363636363636363  21 14.493506493506494  L 21 1.2857142857142845  C 21 0.9480519480519456  21.173177083333332 0.6558441558441541  21.51953125 0.40909090909091006  C 21.865885416666668 0.16233766233765934  22.276041666666668 0.03896103896103731  22.75 0.03896103896103731  L 26.25 0.03896103896103731  C 26.723958333333336 0.03896103896103731  27.134114583333336 0.16233766233765934  27.48046875 0.40909090909091006  C 27.826822916666668 0.6558441558441541  28 0.9480519480519456  28 1.2857142857142845  L 28 28.714285714285715  C 28 29.051948051948052  27.826822916666668 29.344155844155843  27.48046875 29.59090909090909  C 27.134114583333336 29.83766233766234  26.723958333333336 29.961038961038962  26.25 29.961038961038962  L 22.75 29.961038961038962  C 22.276041666666668 29.961038961038962  21.865885416666668 29.83766233766234  21.51953125 29.59090909090909  C 21.173177083333332 29.344155844155843  21 29.051948051948052  21 28.714285714285715  L 21 15.50649350649351  C 20.927083333333336 15.636363636363637  20.80859375 15.759740259740258  20.64453125 15.876623376623378  Z " stroke-width="0" stroke-dasharray="0" stroke="rgba(255, 255, 255, 0)" fill="none" transform="matrix(1 0 0 1 308 640 )" class="stroke" mask="url(#Clip295)" />
  </g>
</svg>