<?xml version="1.0" encoding="utf-8"?>
<svg version="1.1" xmlns:xlink="http://www.w3.org/1999/xlink" width="26px" height="30px" xmlns="http://www.w3.org/2000/svg">
  <defs>
    <pattern id="BGPattern" patternUnits="userSpaceOnUse" alignment="0 0" imageRepeat="None" />
    <mask fill="white" id="Clip296">
      <path d="M 6.830078125 14.123376623376622  L 24.857421875 0.2922077922077915  C 25.179036458333336 0.04545454545454408  25.449869791666668 -0.03896103896104064  25.669921875 0.03896103896103731  C 25.889973958333336 0.11688311688311526  26 0.324675324675322  26 0.6623376623376609  L 26 29.33766233766234  C 26 29.675324675324674  25.889973958333336 29.883116883116884  25.669921875 29.961038961038962  C 25.449869791666668 30.03896103896104  25.179036458333336 29.954545454545457  24.857421875 29.70779220779221  L 6.830078125 15.876623376623378  C 6.677734375 15.759740259740258  6.567708333333334 15.636363636363637  7 15.50649350649351  L 7 28.714285714285715  C 6.5 29.051948051948052  6.339192708333334 29.344155844155843  6.017578125 29.59090909090909  C 5.695963541666667 29.83766233766234  5.315104166666667 29.961038961038962  4.875 29.961038961038962  L 1.625 29.961038961038962  C 1.1848958333333335 29.961038961038962  0.8040364583333334 29.83766233766234  0.482421875 29.59090909090909  C 0.16080729166666666 29.344155844155843  0 29.051948051948052  0 28.714285714285715  L 0 1.2857142857142845  C 0 0.9480519480519456  0.16080729166666666 0.6558441558441541  0.482421875 0.40909090909091006  C 0.8040364583333334 0.16233766233765934  1.1848958333333335 0.03896103896103731  1.625 0.03896103896103731  L 4.875 0.03896103896103731  C 5.315104166666667 0.03896103896103731  5.695963541666667 0.16233766233765934  6.017578125 0.40909090909091006  C 6.339192708333334 0.6558441558441541  6.5 0.9480519480519456  7 1.2857142857142845  L 7 14.493506493506494  C 6.567708333333334 14.363636363636363  6.677734375 14.240259740259742  6.830078125 14.123376623376622  Z " fill-rule="evenodd" />
    </mask>
  </defs>
  <g transform="matrix(1 0 0 1 -215 -640 )">
    <path d="M 6.830078125 14.123376623376622  L 24.857421875 0.2922077922077915  C 25.179036458333336 0.04545454545454408  25.449869791666668 -0.03896103896104064  25.669921875 0.03896103896103731  C 25.889973958333336 0.11688311688311526  26 0.324675324675322  26 0.6623376623376609  L 26 29.33766233766234  C 26 29.675324675324674  25.889973958333336 29.883116883116884  25.669921875 29.961038961038962  C 25.449869791666668 30.03896103896104  25.179036458333336 29.954545454545457  24.857421875 29.70779220779221  L 6.830078125 15.876623376623378  C 6.677734375 15.759740259740258  6.567708333333334 15.636363636363637  7 15.50649350649351  L 7 28.714285714285715  C 6.5 29.051948051948052  6.339192708333334 29.344155844155843  6.017578125 29.59090909090909  C 5.695963541666667 29.83766233766234  5.315104166666667 29.961038961038962  4.875 29.961038961038962  L 1.625 29.961038961038962  C 1.1848958333333335 29.961038961038962  0.8040364583333334 29.83766233766234  0.482421875 29.59090909090909  C 0.16080729166666666 29.344155844155843  0 29.051948051948052  0 28.714285714285715  L 0 1.2857142857142845  C 0 0.9480519480519456  0.16080729166666666 0.6558441558441541  0.482421875 0.40909090909091006  C 0.8040364583333334 0.16233766233765934  1.1848958333333335 0.03896103896103731  1.625 0.03896103896103731  L 4.875 0.03896103896103731  C 5.315104166666667 0.03896103896103731  5.695963541666667 0.16233766233765934  6.017578125 0.40909090909091006  C 6.339192708333334 0.6558441558441541  6.5 0.9480519480519456  7 1.2857142857142845  L 7 14.493506493506494  C 6.567708333333334 14.363636363636363  6.677734375 14.240259740259742  6.830078125 14.123376623376622  Z " fill-rule="nonzero" fill="rgba(0, 0, 0, 1)" stroke="none" transform="matrix(1 0 0 1 215 640 )" class="fill" />
    <path d="M 6.830078125 14.123376623376622  L 24.857421875 0.2922077922077915  C 25.179036458333336 0.04545454545454408  25.449869791666668 -0.03896103896104064  25.669921875 0.03896103896103731  C 25.889973958333336 0.11688311688311526  26 0.324675324675322  26 0.6623376623376609  L 26 29.33766233766234  C 26 29.675324675324674  25.889973958333336 29.883116883116884  25.669921875 29.961038961038962  C 25.449869791666668 30.03896103896104  25.179036458333336 29.954545454545457  24.857421875 29.70779220779221  L 6.830078125 15.876623376623378  C 6.677734375 15.759740259740258  6.567708333333334 15.636363636363637  7 15.50649350649351  L 7 28.714285714285715  C 6.5 29.051948051948052  6.339192708333334 29.344155844155843  6.017578125 29.59090909090909  C 5.695963541666667 29.83766233766234  5.315104166666667 29.961038961038962  4.875 29.961038961038962  L 1.625 29.961038961038962  C 1.1848958333333335 29.961038961038962  0.8040364583333334 29.83766233766234  0.482421875 29.59090909090909  C 0.16080729166666666 29.344155844155843  0 29.051948051948052  0 28.714285714285715  L 0 1.2857142857142845  C 0 0.9480519480519456  0.16080729166666666 0.6558441558441541  0.482421875 0.40909090909091006  C 0.8040364583333334 0.16233766233765934  1.1848958333333335 0.03896103896103731  1.625 0.03896103896103731  L 4.875 0.03896103896103731  C 5.315104166666667 0.03896103896103731  5.695963541666667 0.16233766233765934  6.017578125 0.40909090909091006  C 6.339192708333334 0.6558441558441541  6.5 0.9480519480519456  7 1.2857142857142845  L 7 14.493506493506494  C 6.567708333333334 14.363636363636363  6.677734375 14.240259740259742  6.830078125 14.123376623376622  Z " stroke-width="0" stroke-dasharray="0" stroke="rgba(255, 255, 255, 0)" fill="none" transform="matrix(1 0 0 1 215 640 )" class="stroke" mask="url(#Clip296)" />
  </g>
</svg>