<?xml version="1.0" encoding="utf-8"?>
<svg version="1.1" xmlns:xlink="http://www.w3.org/1999/xlink" width="22px" height="30px" xmlns="http://www.w3.org/2000/svg">
  <defs>
    <pattern id="BGPattern" patternUnits="userSpaceOnUse" alignment="0 0" imageRepeat="None" />
    <mask fill="white" id="Clip297">
      <path d="M 22 15  C 22 15.231660231660232  21.88012319355603 15.431145431145431  21.64036958066809 15.598455598455596  L 0.8756218905472637 29.845559845559844  C 0.6358682776593225 30.01287001287001  0.4299928926794599 30.032175032175036  0.2579957356076759 29.9034749034749  C 0.08599857853589196 29.774774774774777  0 29.54311454311454  0 29.20849420849421  L 0 0.791505791505791  C 0 0.456885456885453  0.08599857853589196 0.22522522522522181  0.2579957356076759 0.09652509652509744  C 0.4299928926794599 -0.03217503217503692  0.6358682776593225 -0.012870012870012104  0.8756218905472637 0.15444015444015524  L 21.64036958066809 14.4015444015444  C 21.88012319355603 14.568854568854569  22 14.768339768339768  22 15  Z " fill-rule="evenodd" />
    </mask>
  </defs>
  <g transform="matrix(1 0 0 1 -268 -640 )">
    <path d="M 22 15  C 22 15.231660231660232  21.88012319355603 15.431145431145431  21.64036958066809 15.598455598455596  L 0.8756218905472637 29.845559845559844  C 0.6358682776593225 30.01287001287001  0.4299928926794599 30.032175032175036  0.2579957356076759 29.9034749034749  C 0.08599857853589196 29.774774774774777  0 29.54311454311454  0 29.20849420849421  L 0 0.791505791505791  C 0 0.456885456885453  0.08599857853589196 0.22522522522522181  0.2579957356076759 0.09652509652509744  C 0.4299928926794599 -0.03217503217503692  0.6358682776593225 -0.012870012870012104  0.8756218905472637 0.15444015444015524  L 21.64036958066809 14.4015444015444  C 21.88012319355603 14.568854568854569  22 14.768339768339768  22 15  Z " fill-rule="nonzero" fill="rgba(0, 0, 0, 1)" stroke="none" transform="matrix(1 0 0 1 268 640 )" class="fill" />
    <path d="M 22 15  C 22 15.231660231660232  21.88012319355603 15.431145431145431  21.64036958066809 15.598455598455596  L 0.8756218905472637 29.845559845559844  C 0.6358682776593225 30.01287001287001  0.4299928926794599 30.032175032175036  0.2579957356076759 29.9034749034749  C 0.08599857853589196 29.774774774774777  0 29.54311454311454  0 29.20849420849421  L 0 0.791505791505791  C 0 0.456885456885453  0.08599857853589196 0.22522522522522181  0.2579957356076759 0.09652509652509744  C 0.4299928926794599 -0.03217503217503692  0.6358682776593225 -0.012870012870012104  0.8756218905472637 0.15444015444015524  L 21.64036958066809 14.4015444015444  C 21.88012319355603 14.568854568854569  22 14.768339768339768  22 15  Z " stroke-width="0" stroke-dasharray="0" stroke="rgba(255, 255, 255, 0)" fill="none" transform="matrix(1 0 0 1 268 640 )" class="stroke" mask="url(#Clip297)" />
  </g>
</svg>