<?xml version="1.0" encoding="utf-8"?>
<svg version="1.1" xmlns:xlink="http://www.w3.org/1999/xlink" width="22px" height="30px" xmlns="http://www.w3.org/2000/svg">
  <defs>
    <pattern id="BGPattern" patternUnits="userSpaceOnUse" alignment="0 0" imageRepeat="None" />
    <mask fill="white" id="Clip298">
      <path d="M 21.727864583333336 0.3710937499999989  C 21.909288194444443 0.6184895833333293  22 0.9114583333333293  22 1.249999999999999  L 22 28.75  C 22 29.088541666666664  21.909288194444443 29.381510416666664  21.727864583333336 29.62890625  C 21.546440972222225 29.876302083333336  21.331597222222225 30  21.083333333333336 30  L 13.75 30  C 13.50173611111111 30  13.28689236111111 29.876302083333336  13.10546875 29.62890625  C 12.92404513888889 29.381510416666664  12.833333333333334 29.088541666666664  12.833333333333334 28.75  L 12.833333333333334 1.249999999999999  C 12.833333333333334 0.9114583333333293  12.92404513888889 0.6184895833333293  13.10546875 0.3710937499999989  C 13.28689236111111 0.12369791666666519  13.50173611111111 0  13.75 0  L 21.083333333333336 0  C 21.331597222222225 0  21.546440972222225 0.12369791666666519  21.727864583333336 0.3710937499999989  Z M 8.89453125 0.3710937499999989  C 9.075954861111112 0.6184895833333293  9.166666666666668 0.9114583333333293  9.166666666666668 1.249999999999999  L 9.166666666666668 28.75  C 9.166666666666668 29.088541666666664  9.075954861111112 29.381510416666664  8.89453125 29.62890625  C 8.71310763888889 29.876302083333336  8.49826388888889 30  8.25 30  L 0.9166666666666666 30  C 0.6684027777777779 30  0.4535590277777778 29.876302083333336  0.27213541666666663 29.62890625  C 0.09071180555555555 29.381510416666664  0 29.088541666666664  0 28.75  L 0 1.249999999999999  C 0 0.9114583333333293  0.09071180555555555 0.6184895833333293  0.27213541666666663 0.3710937499999989  C 0.4535590277777778 0.12369791666666519  0.6684027777777779 0  0.9166666666666666 0  L 8.25 0  C 8.49826388888889 0  8.71310763888889 0.12369791666666519  8.89453125 0.3710937499999989  Z " fill-rule="evenodd" />
    </mask>
  </defs>
  <g transform="matrix(1 0 0 1 -268 -640 )">
    <path d="M 21.727864583333336 0.3710937499999989  C 21.909288194444443 0.6184895833333293  22 0.9114583333333293  22 1.249999999999999  L 22 28.75  C 22 29.088541666666664  21.909288194444443 29.381510416666664  21.727864583333336 29.62890625  C 21.546440972222225 29.876302083333336  21.331597222222225 30  21.083333333333336 30  L 13.75 30  C 13.50173611111111 30  13.28689236111111 29.876302083333336  13.10546875 29.62890625  C 12.92404513888889 29.381510416666664  12.833333333333334 29.088541666666664  12.833333333333334 28.75  L 12.833333333333334 1.249999999999999  C 12.833333333333334 0.9114583333333293  12.92404513888889 0.6184895833333293  13.10546875 0.3710937499999989  C 13.28689236111111 0.12369791666666519  13.50173611111111 0  13.75 0  L 21.083333333333336 0  C 21.331597222222225 0  21.546440972222225 0.12369791666666519  21.727864583333336 0.3710937499999989  Z M 8.89453125 0.3710937499999989  C 9.075954861111112 0.6184895833333293  9.166666666666668 0.9114583333333293  9.166666666666668 1.249999999999999  L 9.166666666666668 28.75  C 9.166666666666668 29.088541666666664  9.075954861111112 29.381510416666664  8.89453125 29.62890625  C 8.71310763888889 29.876302083333336  8.49826388888889 30  8.25 30  L 0.9166666666666666 30  C 0.6684027777777779 30  0.4535590277777778 29.876302083333336  0.27213541666666663 29.62890625  C 0.09071180555555555 29.381510416666664  0 29.088541666666664  0 28.75  L 0 1.249999999999999  C 0 0.9114583333333293  0.09071180555555555 0.6184895833333293  0.27213541666666663 0.3710937499999989  C 0.4535590277777778 0.12369791666666519  0.6684027777777779 0  0.9166666666666666 0  L 8.25 0  C 8.49826388888889 0  8.71310763888889 0.12369791666666519  8.89453125 0.3710937499999989  Z " fill-rule="nonzero" fill="rgba(0, 0, 0, 1)" stroke="none" transform="matrix(1 0 0 1 268 640 )" class="fill" />
    <path d="M 21.727864583333336 0.3710937499999989  C 21.909288194444443 0.6184895833333293  22 0.9114583333333293  22 1.249999999999999  L 22 28.75  C 22 29.088541666666664  21.909288194444443 29.381510416666664  21.727864583333336 29.62890625  C 21.546440972222225 29.876302083333336  21.331597222222225 30  21.083333333333336 30  L 13.75 30  C 13.50173611111111 30  13.28689236111111 29.876302083333336  13.10546875 29.62890625  C 12.92404513888889 29.381510416666664  12.833333333333334 29.088541666666664  12.833333333333334 28.75  L 12.833333333333334 1.249999999999999  C 12.833333333333334 0.9114583333333293  12.92404513888889 0.6184895833333293  13.10546875 0.3710937499999989  C 13.28689236111111 0.12369791666666519  13.50173611111111 0  13.75 0  L 21.083333333333336 0  C 21.331597222222225 0  21.546440972222225 0.12369791666666519  21.727864583333336 0.3710937499999989  Z " stroke-width="0" stroke-dasharray="0" stroke="rgba(255, 255, 255, 0)" fill="none" transform="matrix(1 0 0 1 268 640 )" class="stroke" mask="url(#Clip298)" />
    <path d="M 8.89453125 0.3710937499999989  C 9.075954861111112 0.6184895833333293  9.166666666666668 0.9114583333333293  9.166666666666668 1.249999999999999  L 9.166666666666668 28.75  C 9.166666666666668 29.088541666666664  9.075954861111112 29.381510416666664  8.89453125 29.62890625  C 8.71310763888889 29.876302083333336  8.49826388888889 30  8.25 30  L 0.9166666666666666 30  C 0.6684027777777779 30  0.4535590277777778 29.876302083333336  0.27213541666666663 29.62890625  C 0.09071180555555555 29.381510416666664  0 29.088541666666664  0 28.75  L 0 1.249999999999999  C 0 0.9114583333333293  0.09071180555555555 0.6184895833333293  0.27213541666666663 0.3710937499999989  C 0.4535590277777778 0.12369791666666519  0.6684027777777779 0  0.9166666666666666 0  L 8.25 0  C 8.49826388888889 0  8.71310763888889 0.12369791666666519  8.89453125 0.3710937499999989  Z " stroke-width="0" stroke-dasharray="0" stroke="rgba(255, 255, 255, 0)" fill="none" transform="matrix(1 0 0 1 268 640 )" class="stroke" mask="url(#Clip298)" />
  </g>
</svg>