<?xml version="1.0" encoding="utf-8"?>
<svg version="1.1" xmlns:xlink="http://www.w3.org/1999/xlink" width="49px" height="42px" xmlns="http://www.w3.org/2000/svg">
  <defs>
    <pattern id="BGPattern" patternUnits="userSpaceOnUse" alignment="0 0" imageRepeat="None" />
    <mask fill="white" id="Clip299">
      <path d="M 20.416666666666668 19.25  L 20.416666666666668 26.25  L 28.583333333333336 22.750000000000004  L 20.416666666666668 19.25  Z M 17 17.08984375  L 32 10.08984375  L 32 24.910156249999996  L 17 31.91015625  L 17 17.08984375  Z M 39.525390625 28.46484375  C 41.077907986111114 26.186197916666664  41.854166666666664 23.697916666666668  41.854166666666664 21  C 41.854166666666664 18.302083333333332  41.077907986111114 15.813802083333332  39.525390625 13.53515625  C 37.97287326388889 11.256510416666663  35.86740451388889 9.451822916666663  33.208984375 8.12109375  C 30.55056423611111 6.790364583333333  27.647569444444446 6.125000000000002  24.5 6.125000000000002  C 21.352430555555557 6.125000000000002  18.44943576388889 6.790364583333333  15.791015625 8.12109375  C 13.132595486111112 9.451822916666663  11.027126736111112 11.256510416666663  9.474609375 13.53515625  C 7.922092013888889 15.813802083333332  7.145833333333334 18.302083333333332  7.145833333333334 21  C 7.145833333333334 23.697916666666668  7.922092013888889 26.186197916666664  9.474609375 28.46484375  C 11.027126736111112 30.74348958333333  13.132595486111112 32.548177083333336  15.791015625 33.87890625  C 18.44943576388889 35.209635416666664  21.352430555555557 35.875  24.5 35.875  C 27.647569444444446 35.875  30.55056423611111 35.209635416666664  33.208984375 33.87890625  C 35.86740451388889 32.548177083333336  37.97287326388889 30.74348958333333  39.525390625 28.46484375  Z M 45.714192708333336 10.458984375  C 47.90473090277777 13.676432291666663  49 17.19010416666666  49 21  C 49 24.809895833333336  47.90473090277777 28.32356770833333  45.714192708333336 31.541015625  C 43.52365451388889 34.758463541666664  40.551540798611114 37.305989583333336  36.7978515625 39.18359375  C 33.04416232638889 41.06119791666667  28.944878472222225 42  24.5 42  C 20.05512152777778 42  15.955837673611112 41.06119791666667  12.2021484375 39.18359375  C 8.44845920138889 37.305989583333336  5.476345486111112 34.758463541666664  3.285807291666667 31.541015625  C 1.095269097222222 28.32356770833333  0 24.809895833333336  0 21  C 0 17.19010416666666  1.095269097222222 13.676432291666663  3.285807291666667 10.458984375  C 5.476345486111112 7.241536458333333  8.44845920138889 4.6940104166666625  12.2021484375 2.8164062499999982  C 15.955837673611112 0.9388020833333297  20.05512152777778 0  24.5 0  C 28.944878472222225 0  33.04416232638889 0.9388020833333297  36.7978515625 2.8164062499999982  C 40.551540798611114 4.6940104166666625  43.52365451388889 7.241536458333333  45.714192708333336 10.458984375  Z " fill-rule="evenodd" />
    </mask>
  </defs>
  <g transform="matrix(1 0 0 1 -34 -698 )">
    <path d="M 20.416666666666668 19.25  L 20.416666666666668 26.25  L 28.583333333333336 22.750000000000004  L 20.416666666666668 19.25  Z M 17 17.08984375  L 32 10.08984375  L 32 24.910156249999996  L 17 31.91015625  L 17 17.08984375  Z M 39.525390625 28.46484375  C 41.077907986111114 26.186197916666664  41.854166666666664 23.697916666666668  41.854166666666664 21  C 41.854166666666664 18.302083333333332  41.077907986111114 15.813802083333332  39.525390625 13.53515625  C 37.97287326388889 11.256510416666663  35.86740451388889 9.451822916666663  33.208984375 8.12109375  C 30.55056423611111 6.790364583333333  27.647569444444446 6.125000000000002  24.5 6.125000000000002  C 21.352430555555557 6.125000000000002  18.44943576388889 6.790364583333333  15.791015625 8.12109375  C 13.132595486111112 9.451822916666663  11.027126736111112 11.256510416666663  9.474609375 13.53515625  C 7.922092013888889 15.813802083333332  7.145833333333334 18.302083333333332  7.145833333333334 21  C 7.145833333333334 23.697916666666668  7.922092013888889 26.186197916666664  9.474609375 28.46484375  C 11.027126736111112 30.74348958333333  13.132595486111112 32.548177083333336  15.791015625 33.87890625  C 18.44943576388889 35.209635416666664  21.352430555555557 35.875  24.5 35.875  C 27.647569444444446 35.875  30.55056423611111 35.209635416666664  33.208984375 33.87890625  C 35.86740451388889 32.548177083333336  37.97287326388889 30.74348958333333  39.525390625 28.46484375  Z M 45.714192708333336 10.458984375  C 47.90473090277777 13.676432291666663  49 17.19010416666666  49 21  C 49 24.809895833333336  47.90473090277777 28.32356770833333  45.714192708333336 31.541015625  C 43.52365451388889 34.758463541666664  40.551540798611114 37.305989583333336  36.7978515625 39.18359375  C 33.04416232638889 41.06119791666667  28.944878472222225 42  24.5 42  C 20.05512152777778 42  15.955837673611112 41.06119791666667  12.2021484375 39.18359375  C 8.44845920138889 37.305989583333336  5.476345486111112 34.758463541666664  3.285807291666667 31.541015625  C 1.095269097222222 28.32356770833333  0 24.809895833333336  0 21  C 0 17.19010416666666  1.095269097222222 13.676432291666663  3.285807291666667 10.458984375  C 5.476345486111112 7.241536458333333  8.44845920138889 4.6940104166666625  12.2021484375 2.8164062499999982  C 15.955837673611112 0.9388020833333297  20.05512152777778 0  24.5 0  C 28.944878472222225 0  33.04416232638889 0.9388020833333297  36.7978515625 2.8164062499999982  C 40.551540798611114 4.6940104166666625  43.52365451388889 7.241536458333333  45.714192708333336 10.458984375  Z " fill-rule="nonzero" fill="rgba(166, 0, 139, 1)" stroke="none" transform="matrix(1 0 0 1 34 698 )" class="fill" />
    <path d="M 20.416666666666668 19.25  L 20.416666666666668 26.25  L 28.583333333333336 22.750000000000004  L 20.416666666666668 19.25  Z " stroke-width="0" stroke-dasharray="0" stroke="rgba(255, 255, 255, 0)" fill="none" transform="matrix(1 0 0 1 34 698 )" class="stroke" mask="url(#Clip299)" />
    <path d="M 17 17.08984375  L 32 10.08984375  L 32 24.910156249999996  L 17 31.91015625  L 17 17.08984375  Z " stroke-width="0" stroke-dasharray="0" stroke="rgba(255, 255, 255, 0)" fill="none" transform="matrix(1 0 0 1 34 698 )" class="stroke" mask="url(#Clip299)" />
    <path d="M 39.525390625 28.46484375  C 41.077907986111114 26.186197916666664  41.854166666666664 23.697916666666668  41.854166666666664 21  C 41.854166666666664 18.302083333333332  41.077907986111114 15.813802083333332  39.525390625 13.53515625  C 37.97287326388889 11.256510416666663  35.86740451388889 9.451822916666663  33.208984375 8.12109375  C 30.55056423611111 6.790364583333333  27.647569444444446 6.125000000000002  24.5 6.125000000000002  C 21.352430555555557 6.125000000000002  18.44943576388889 6.790364583333333  15.791015625 8.12109375  C 13.132595486111112 9.451822916666663  11.027126736111112 11.256510416666663  9.474609375 13.53515625  C 7.922092013888889 15.813802083333332  7.145833333333334 18.302083333333332  7.145833333333334 21  C 7.145833333333334 23.697916666666668  7.922092013888889 26.186197916666664  9.474609375 28.46484375  C 11.027126736111112 30.74348958333333  13.132595486111112 32.548177083333336  15.791015625 33.87890625  C 18.44943576388889 35.209635416666664  21.352430555555557 35.875  24.5 35.875  C 27.647569444444446 35.875  30.55056423611111 35.209635416666664  33.208984375 33.87890625  C 35.86740451388889 32.548177083333336  37.97287326388889 30.74348958333333  39.525390625 28.46484375  Z " stroke-width="0" stroke-dasharray="0" stroke="rgba(255, 255, 255, 0)" fill="none" transform="matrix(1 0 0 1 34 698 )" class="stroke" mask="url(#Clip299)" />
    <path d="M 45.714192708333336 10.458984375  C 47.90473090277777 13.676432291666663  49 17.19010416666666  49 21  C 49 24.809895833333336  47.90473090277777 28.32356770833333  45.714192708333336 31.541015625  C 43.52365451388889 34.758463541666664  40.551540798611114 37.305989583333336  36.7978515625 39.18359375  C 33.04416232638889 41.06119791666667  28.944878472222225 42  24.5 42  C 20.05512152777778 42  15.955837673611112 41.06119791666667  12.2021484375 39.18359375  C 8.44845920138889 37.305989583333336  5.476345486111112 34.758463541666664  3.285807291666667 31.541015625  C 1.095269097222222 28.32356770833333  0 24.809895833333336  0 21  C 0 17.19010416666666  1.095269097222222 13.676432291666663  3.285807291666667 10.458984375  C 5.476345486111112 7.241536458333333  8.44845920138889 4.6940104166666625  12.2021484375 2.8164062499999982  C 15.955837673611112 0.9388020833333297  20.05512152777778 0  24.5 0  C 28.944878472222225 0  33.04416232638889 0.9388020833333297  36.7978515625 2.8164062499999982  C 40.551540798611114 4.6940104166666625  43.52365451388889 7.241536458333333  45.714192708333336 10.458984375  Z " stroke-width="0" stroke-dasharray="0" stroke="rgba(255, 255, 255, 0)" fill="none" transform="matrix(1 0 0 1 34 698 )" class="stroke" mask="url(#Clip299)" />
  </g>
</svg>