<?xml version="1.0" encoding="utf-8"?>
<svg version="1.1" xmlns:xlink="http://www.w3.org/1999/xlink" width="28px" height="33px" xmlns="http://www.w3.org/2000/svg">
  <defs>
    <pattern id="BGPattern" patternUnits="userSpaceOnUse" alignment="0 0" imageRepeat="None" />
    <mask fill="white" id="Clip300">
      <path d="M 27.489583333333336 0.5552884615384632  C 27.82986111111111 0.9254807692307659  28 1.3749999999999987  28 1.9038461538461544  L 28 24.115384615384617  C 28 24.776442307692303  27.793402777777775 25.364783653846153  27.380208333333336 25.880408653846153  C 26.96701388888889 26.396033653846153  26.444444444444446 26.79597355769231  25.8125 27.080228365384617  C 25.18055555555556 27.36448317307692  24.55164930555556 27.576021634615383  23.92578125 27.71484375  C 23.299913194444446 27.853665865384617  22.713541666666664 27.923076923076923  22.166666666666664 27.923076923076923  C 21.619791666666664 27.923076923076923  21.03342013888889 27.853665865384617  20.407552083333336 27.71484375  C 19.78168402777778 27.576021634615383  19.15277777777778 27.36448317307692  18.520833333333336 27.080228365384617  C 17.88888888888889 26.79597355769231  17.366319444444446 26.396033653846153  16.953125 25.880408653846153  C 16.539930555555557 25.364783653846153  16.333333333333336 24.776442307692303  16.333333333333336 24.115384615384617  C 16.333333333333336 23.454326923076923  16.539930555555557 22.865985576923077  16.953125 22.350360576923077  C 17.366319444444446 21.834735576923077  17.88888888888889 21.43479567307692  18.520833333333336 21.150540865384617  C 19.15277777777778 20.866286057692307  19.78168402777778 20.654747596153847  20.407552083333336 20.51592548076923  C 21.03342013888889 20.377103365384617  21.619791666666664 20.30769230769231  22.166666666666664 20.30769230769231  C 23.442708333333336 20.30769230769231  24.609375 20.56550480769231  25.666666666666664 21.08112980769231  L 25.666666666666664 10.431490384615387  L 12 15.131610576923077  L 12 29.19230769230769  C 11.666666666666668 29.853365384615383  11.460069444444445 30.44170673076923  11.046875 30.95733173076923  C 10.633680555555557 31.47295673076923  10.111111111111112 31.872896634615387  9.479166666666668 32.15715144230769  C 8.847222222222223 32.44140625  8.218315972222223 32.65294471153846  7.592447916666667 32.79176682692308  C 6.966579861111112 32.93058894230769  6.380208333333334 33  5.833333333333334 33  C 5.286458333333334 33  4.700086805555556 32.93058894230769  4.07421875 32.79176682692308  C 3.448350694444445 32.65294471153846  2.819444444444445 32.44140625  2.1875 32.15715144230769  C 1.5555555555555556 31.872896634615387  1.0329861111111112 31.47295673076923  0.6197916666666667 30.95733173076923  C 0.20659722222222218 30.44170673076923  0 29.853365384615383  0 29.19230769230769  C 0 28.53125  0.20659722222222218 27.942908653846153  0.6197916666666667 27.427283653846153  C 1.0329861111111112 26.911658653846153  1.5555555555555556 26.51171875  2.1875 26.22746394230769  C 2.819444444444445 25.943209134615387  3.448350694444445 25.731670673076923  4.07421875 25.59284855769231  C 4.700086805555556 25.45402644230769  5.286458333333334 25.384615384615383  5.833333333333334 25.384615384615383  C 7.109375 25.384615384615383  8.276041666666668 25.642427884615383  9.333333333333332 26.158052884615383  L 9.333333333333332 6.980769230769232  C 9.333333333333332 6.570913461538458  9.448784722222223 6.197415865384614  9.6796875 5.860276442307692  C 9.91059027777778 5.523137019230768  10.208333333333332 5.288461538461535  10.572916666666668 5.15625  L 25.739583333333336 0.0793269230769228  C 25.885416666666664 0.0264423076923076  26.05555555555556 0  26.25 0  C 26.736111111111114 0  27.14930555555556 0.1850961538461532  27.489583333333336 0.5552884615384632  Z " fill-rule="evenodd" />
    </mask>
  </defs>
  <g transform="matrix(1 0 0 1 -235 -702 )">
    <path d="M 27.489583333333336 0.5552884615384632  C 27.82986111111111 0.9254807692307659  28 1.3749999999999987  28 1.9038461538461544  L 28 24.115384615384617  C 28 24.776442307692303  27.793402777777775 25.364783653846153  27.380208333333336 25.880408653846153  C 26.96701388888889 26.396033653846153  26.444444444444446 26.79597355769231  25.8125 27.080228365384617  C 25.18055555555556 27.36448317307692  24.55164930555556 27.576021634615383  23.92578125 27.71484375  C 23.299913194444446 27.853665865384617  22.713541666666664 27.923076923076923  22.166666666666664 27.923076923076923  C 21.619791666666664 27.923076923076923  21.03342013888889 27.853665865384617  20.407552083333336 27.71484375  C 19.78168402777778 27.576021634615383  19.15277777777778 27.36448317307692  18.520833333333336 27.080228365384617  C 17.88888888888889 26.79597355769231  17.366319444444446 26.396033653846153  16.953125 25.880408653846153  C 16.539930555555557 25.364783653846153  16.333333333333336 24.776442307692303  16.333333333333336 24.115384615384617  C 16.333333333333336 23.454326923076923  16.539930555555557 22.865985576923077  16.953125 22.350360576923077  C 17.366319444444446 21.834735576923077  17.88888888888889 21.43479567307692  18.520833333333336 21.150540865384617  C 19.15277777777778 20.866286057692307  19.78168402777778 20.654747596153847  20.407552083333336 20.51592548076923  C 21.03342013888889 20.377103365384617  21.619791666666664 20.30769230769231  22.166666666666664 20.30769230769231  C 23.442708333333336 20.30769230769231  24.609375 20.56550480769231  25.666666666666664 21.08112980769231  L 25.666666666666664 10.431490384615387  L 12 15.131610576923077  L 12 29.19230769230769  C 11.666666666666668 29.853365384615383  11.460069444444445 30.44170673076923  11.046875 30.95733173076923  C 10.633680555555557 31.47295673076923  10.111111111111112 31.872896634615387  9.479166666666668 32.15715144230769  C 8.847222222222223 32.44140625  8.218315972222223 32.65294471153846  7.592447916666667 32.79176682692308  C 6.966579861111112 32.93058894230769  6.380208333333334 33  5.833333333333334 33  C 5.286458333333334 33  4.700086805555556 32.93058894230769  4.07421875 32.79176682692308  C 3.448350694444445 32.65294471153846  2.819444444444445 32.44140625  2.1875 32.15715144230769  C 1.5555555555555556 31.872896634615387  1.0329861111111112 31.47295673076923  0.6197916666666667 30.95733173076923  C 0.20659722222222218 30.44170673076923  0 29.853365384615383  0 29.19230769230769  C 0 28.53125  0.20659722222222218 27.942908653846153  0.6197916666666667 27.427283653846153  C 1.0329861111111112 26.911658653846153  1.5555555555555556 26.51171875  2.1875 26.22746394230769  C 2.819444444444445 25.943209134615387  3.448350694444445 25.731670673076923  4.07421875 25.59284855769231  C 4.700086805555556 25.45402644230769  5.286458333333334 25.384615384615383  5.833333333333334 25.384615384615383  C 7.109375 25.384615384615383  8.276041666666668 25.642427884615383  9.333333333333332 26.158052884615383  L 9.333333333333332 6.980769230769232  C 9.333333333333332 6.570913461538458  9.448784722222223 6.197415865384614  9.6796875 5.860276442307692  C 9.91059027777778 5.523137019230768  10.208333333333332 5.288461538461535  10.572916666666668 5.15625  L 25.739583333333336 0.0793269230769228  C 25.885416666666664 0.0264423076923076  26.05555555555556 0  26.25 0  C 26.736111111111114 0  27.14930555555556 0.1850961538461532  27.489583333333336 0.5552884615384632  Z " fill-rule="nonzero" fill="rgba(166, 0, 139, 1)" stroke="none" transform="matrix(1 0 0 1 235 702 )" class="fill" />
    <path d="M 27.489583333333336 0.5552884615384632  C 27.82986111111111 0.9254807692307659  28 1.3749999999999987  28 1.9038461538461544  L 28 24.115384615384617  C 28 24.776442307692303  27.793402777777775 25.364783653846153  27.380208333333336 25.880408653846153  C 26.96701388888889 26.396033653846153  26.444444444444446 26.79597355769231  25.8125 27.080228365384617  C 25.18055555555556 27.36448317307692  24.55164930555556 27.576021634615383  23.92578125 27.71484375  C 23.299913194444446 27.853665865384617  22.713541666666664 27.923076923076923  22.166666666666664 27.923076923076923  C 21.619791666666664 27.923076923076923  21.03342013888889 27.853665865384617  20.407552083333336 27.71484375  C 19.78168402777778 27.576021634615383  19.15277777777778 27.36448317307692  18.520833333333336 27.080228365384617  C 17.88888888888889 26.79597355769231  17.366319444444446 26.396033653846153  16.953125 25.880408653846153  C 16.539930555555557 25.364783653846153  16.333333333333336 24.776442307692303  16.333333333333336 24.115384615384617  C 16.333333333333336 23.454326923076923  16.539930555555557 22.865985576923077  16.953125 22.350360576923077  C 17.366319444444446 21.834735576923077  17.88888888888889 21.43479567307692  18.520833333333336 21.150540865384617  C 19.15277777777778 20.866286057692307  19.78168402777778 20.654747596153847  20.407552083333336 20.51592548076923  C 21.03342013888889 20.377103365384617  21.619791666666664 20.30769230769231  22.166666666666664 20.30769230769231  C 23.442708333333336 20.30769230769231  24.609375 20.56550480769231  25.666666666666664 21.08112980769231  L 25.666666666666664 10.431490384615387  L 12 15.131610576923077  L 12 29.19230769230769  C 11.666666666666668 29.853365384615383  11.460069444444445 30.44170673076923  11.046875 30.95733173076923  C 10.633680555555557 31.47295673076923  10.111111111111112 31.872896634615387  9.479166666666668 32.15715144230769  C 8.847222222222223 32.44140625  8.218315972222223 32.65294471153846  7.592447916666667 32.79176682692308  C 6.966579861111112 32.93058894230769  6.380208333333334 33  5.833333333333334 33  C 5.286458333333334 33  4.700086805555556 32.93058894230769  4.07421875 32.79176682692308  C 3.448350694444445 32.65294471153846  2.819444444444445 32.44140625  2.1875 32.15715144230769  C 1.5555555555555556 31.872896634615387  1.0329861111111112 31.47295673076923  0.6197916666666667 30.95733173076923  C 0.20659722222222218 30.44170673076923  0 29.853365384615383  0 29.19230769230769  C 0 28.53125  0.20659722222222218 27.942908653846153  0.6197916666666667 27.427283653846153  C 1.0329861111111112 26.911658653846153  1.5555555555555556 26.51171875  2.1875 26.22746394230769  C 2.819444444444445 25.943209134615387  3.448350694444445 25.731670673076923  4.07421875 25.59284855769231  C 4.700086805555556 25.45402644230769  5.286458333333334 25.384615384615383  5.833333333333334 25.384615384615383  C 7.109375 25.384615384615383  8.276041666666668 25.642427884615383  9.333333333333332 26.158052884615383  L 9.333333333333332 6.980769230769232  C 9.333333333333332 6.570913461538458  9.448784722222223 6.197415865384614  9.6796875 5.860276442307692  C 9.91059027777778 5.523137019230768  10.208333333333332 5.288461538461535  10.572916666666668 5.15625  L 25.739583333333336 0.0793269230769228  C 25.885416666666664 0.0264423076923076  26.05555555555556 0  26.25 0  C 26.736111111111114 0  27.14930555555556 0.1850961538461532  27.489583333333336 0.5552884615384632  Z " stroke-width="0" stroke-dasharray="0" stroke="rgba(255, 255, 255, 1)" fill="none" transform="matrix(1 0 0 1 235 702 )" class="stroke" mask="url(#Clip300)" />
  </g>
</svg>