<?xml version="1.0" encoding="utf-8"?>
<svg version="1.1" xmlns:xlink="http://www.w3.org/1999/xlink" width="60px" height="54px" xmlns="http://www.w3.org/2000/svg">
  <defs>
    <pattern id="BGPattern" patternUnits="userSpaceOnUse" alignment="0 0" imageRepeat="None" />
    <mask fill="white" id="Clip234">
      <path d="M 0 27  C 0 11.879999999999999  13.2 0  30 0  C 46.800000000000004 0  60 11.879999999999999  60 27  C 60 42.120000000000005  46.800000000000004 54  30 54  C 13.2 54  0 42.120000000000005  0 27  Z " fill-rule="evenodd" />
    </mask>
  </defs>
  <g transform="matrix(1 0 0 1 -246 -331 )">
    <path d="M 0 27  C 0 11.879999999999999  13.2 0  30 0  C 46.800000000000004 0  60 11.879999999999999  60 27  C 60 42.120000000000005  46.800000000000004 54  30 54  C 13.2 54  0 42.120000000000005  0 27  Z " fill-rule="nonzero" fill="rgba(255, 255, 255, 1)" stroke="none" transform="matrix(1 0 0 1 246 331 )" class="fill" />
    <path d="M 0 27  C 0 11.879999999999999  13.2 0  30 0  C 46.800000000000004 0  60 11.879999999999999  60 27  C 60 42.120000000000005  46.800000000000004 54  30 54  C 13.2 54  0 42.120000000000005  0 27  Z " stroke-width="2" stroke-dasharray="0" stroke="rgba(121, 121, 121, 1)" fill="none" transform="matrix(1 0 0 1 246 331 )" class="stroke" mask="url(#Clip234)" />
  </g>
</svg>