<?xml version="1.0" encoding="utf-8"?>
<svg version="1.1" xmlns:xlink="http://www.w3.org/1999/xlink" width="64px" height="63px" xmlns="http://www.w3.org/2000/svg">
  <defs>
    <pattern id="BGPattern" patternUnits="userSpaceOnUse" alignment="0 0" imageRepeat="None" />
    <mask fill="white" id="Clip252">
      <path d="M 0 31.5  C 0 13.859999999999998  14.079999999999998 0  32 0  C 49.92 0  64 13.859999999999998  64 31.5  C 64 49.14  49.92 63  32 63  C 14.079999999999998 63  0 49.14  0 31.5  Z " fill-rule="evenodd" />
    </mask>
  </defs>
  <g transform="matrix(1 0 0 1 -37 -459 )">
    <path d="M 0 31.5  C 0 13.859999999999998  14.079999999999998 0  32 0  C 49.92 0  64 13.859999999999998  64 31.5  C 64 49.14  49.92 63  32 63  C 14.079999999999998 63  0 49.14  0 31.5  Z " fill-rule="nonzero" fill="rgba(255, 255, 255, 1)" stroke="none" transform="matrix(1 0 0 1 37 459 )" class="fill" />
    <path d="M 0 31.5  C 0 13.859999999999998  14.079999999999998 0  32 0  C 49.92 0  64 13.859999999999998  64 31.5  C 64 49.14  49.92 63  32 63  C 14.079999999999998 63  0 49.14  0 31.5  Z " stroke-width="2" stroke-dasharray="0" stroke="rgba(121, 121, 121, 1)" fill="none" transform="matrix(1 0 0 1 37 459 )" class="stroke" mask="url(#Clip252)" />
  </g>
</svg>