<?xml version="1.0" encoding="utf-8"?>
<svg version="1.1" xmlns:xlink="http://www.w3.org/1999/xlink" width="50px" height="50px" xmlns="http://www.w3.org/2000/svg">
  <defs>
    <pattern id="BGPattern" patternUnits="userSpaceOnUse" alignment="0 0" imageRepeat="None" />
    <mask fill="white" id="Clip253">
      <path d="M 49.94677075940383 1.899857954545453  C 50.029571800331205 2.38517992424242  49.952685119470075 2.85274621212121  49.71611071682044 3.3025568181818175  L 27.004968062455642 48.75710227272727  C 26.60279157795127 49.58570075757576  25.92855453039981 50  24.982256919801276 50  C 24.863969718476465 50  24.68653891648924 49.97632575757576  24.449964513839603 49.92897727272727  C 23.92950082801041 49.81060606060606  23.50958126330731 49.544270833333336  23.190205819730306 49.129971590909086  C 22.8708303761533 48.715672348484844  22.711142654364796 48.24810606060606  23 47.72727272727273  L 23 27  L 2.2711142654364798 27  C 1.7506505796072866 27.27272727272727  1.283416134374261 27.112926136363637  0.8694109297374025 26.793323863636363  C 0.45540572510054406 26.473721590909093  0.18925952211970667 26.053503787878785  0.07097232079488999 25.53267045454546  C -0.04731488052992667 25.01183712121212  0 24.514678030303028  0.21291696238466998 24.041193181818183  C 0.42583392476934 23.567708333333332  0.7688668086113083 23.212594696969695  1.242015613910575 22.97585227272727  L 46.66430092264017 0.24857954545454697  C 46.9718476460847 0.08285984848484529  47.31488052992667 0  47.69339957416607 0  C 48.33215046132008 0  48.86444286728176 0.22490530303029832  49.2902767920511 0.6747159090909116  C 49.64513839602555 1.0061553030302983  49.86396971847646 1.4145359848484806  49.94677075940383 1.899857954545453  Z " fill-rule="evenodd" />
    </mask>
  </defs>
  <g transform="matrix(1 0 0 1 -157 -545 )">
    <path d="M 49.94677075940383 1.899857954545453  C 50.029571800331205 2.38517992424242  49.952685119470075 2.85274621212121  49.71611071682044 3.3025568181818175  L 27.004968062455642 48.75710227272727  C 26.60279157795127 49.58570075757576  25.92855453039981 50  24.982256919801276 50  C 24.863969718476465 50  24.68653891648924 49.97632575757576  24.449964513839603 49.92897727272727  C 23.92950082801041 49.81060606060606  23.50958126330731 49.544270833333336  23.190205819730306 49.129971590909086  C 22.8708303761533 48.715672348484844  22.711142654364796 48.24810606060606  23 47.72727272727273  L 23 27  L 2.2711142654364798 27  C 1.7506505796072866 27.27272727272727  1.283416134374261 27.112926136363637  0.8694109297374025 26.793323863636363  C 0.45540572510054406 26.473721590909093  0.18925952211970667 26.053503787878785  0.07097232079488999 25.53267045454546  C -0.04731488052992667 25.01183712121212  0 24.514678030303028  0.21291696238466998 24.041193181818183  C 0.42583392476934 23.567708333333332  0.7688668086113083 23.212594696969695  1.242015613910575 22.97585227272727  L 46.66430092264017 0.24857954545454697  C 46.9718476460847 0.08285984848484529  47.31488052992667 0  47.69339957416607 0  C 48.33215046132008 0  48.86444286728176 0.22490530303029832  49.2902767920511 0.6747159090909116  C 49.64513839602555 1.0061553030302983  49.86396971847646 1.4145359848484806  49.94677075940383 1.899857954545453  Z " fill-rule="nonzero" fill="rgba(0, 0, 0, 1)" stroke="none" transform="matrix(1 0 0 1 157 545 )" class="fill" />
    <path d="M 49.94677075940383 1.899857954545453  C 50.029571800331205 2.38517992424242  49.952685119470075 2.85274621212121  49.71611071682044 3.3025568181818175  L 27.004968062455642 48.75710227272727  C 26.60279157795127 49.58570075757576  25.92855453039981 50  24.982256919801276 50  C 24.863969718476465 50  24.68653891648924 49.97632575757576  24.449964513839603 49.92897727272727  C 23.92950082801041 49.81060606060606  23.50958126330731 49.544270833333336  23.190205819730306 49.129971590909086  C 22.8708303761533 48.715672348484844  22.711142654364796 48.24810606060606  23 47.72727272727273  L 23 27  L 2.2711142654364798 27  C 1.7506505796072866 27.27272727272727  1.283416134374261 27.112926136363637  0.8694109297374025 26.793323863636363  C 0.45540572510054406 26.473721590909093  0.18925952211970667 26.053503787878785  0.07097232079488999 25.53267045454546  C -0.04731488052992667 25.01183712121212  0 24.514678030303028  0.21291696238466998 24.041193181818183  C 0.42583392476934 23.567708333333332  0.7688668086113083 23.212594696969695  1.242015613910575 22.97585227272727  L 46.66430092264017 0.24857954545454697  C 46.9718476460847 0.08285984848484529  47.31488052992667 0  47.69339957416607 0  C 48.33215046132008 0  48.86444286728176 0.22490530303029832  49.2902767920511 0.6747159090909116  C 49.64513839602555 1.0061553030302983  49.86396971847646 1.4145359848484806  49.94677075940383 1.899857954545453  Z " stroke-width="0" stroke-dasharray="0" stroke="rgba(255, 255, 255, 0)" fill="none" transform="matrix(1 0 0 1 157 545 )" class="stroke" mask="url(#Clip253)" />
  </g>
</svg>