<?xml version="1.0" encoding="utf-8"?>
<svg version="1.1" xmlns:xlink="http://www.w3.org/1999/xlink" width="382px" height="816px" xmlns="http://www.w3.org/2000/svg">
  <defs>
    <pattern id="BGPattern" patternUnits="userSpaceOnUse" alignment="0 0" imageRepeat="None" />
    <mask fill="white" id="Clip236">
      <path d="M 0 816  L 0 0  L 382 0  L 382 816  L 0 816  Z " fill-rule="evenodd" />
    </mask>
    <mask fill="white" id="Clip237">
      <path d="M 177.5 399  L 206.5 399  L 206.5 418  L 177.5 418  Z M 0 0  L 382 0  L 382 816  L 0 816  Z " fill-rule="evenodd" />
    </mask>
  </defs>
  <g transform="matrix(1 0 0 1 0 1 )">
    <path d="M 0 816  L 0 0  L 382 0  L 382 816  L 0 816  Z " fill-rule="nonzero" fill="rgba(242, 242, 242, 1)" stroke="none" transform="matrix(1 0 0 1 0 -1 )" class="fill" />
    <path d="M 0 816  L 0 0  L 382 0  L 382 816  L 0 816  Z " stroke-width="2" stroke-dasharray="0" stroke="rgba(121, 121, 121, 1)" fill="none" transform="matrix(1 0 0 1 0 -1 )" class="stroke" mask="url(#Clip236)" />
    <path d="M 381.54716395420894 0.9673146946741034  L 0.45283604579106307 815.0326853053259  M 0.45283604579106307 0.9673146946741034  L 381.54716395420894 815.0326853053259  " stroke-width="1" stroke-dasharray="0" stroke="rgba(121, 121, 121, 1)" fill="none" transform="matrix(1 0 0 1 0 -1 )" class="stroke" mask="url(#Clip237)" />
  </g>
</svg>