<?xml version="1.0" encoding="utf-8"?>
<svg version="1.1" xmlns:xlink="http://www.w3.org/1999/xlink" width="19px" height="23px" xmlns="http://www.w3.org/2000/svg">
  <defs>
    <pattern id="BGPattern" patternUnits="userSpaceOnUse" alignment="0 0" imageRepeat="None" />
    <mask fill="white" id="Clip240">
      <path d="M 0 11.5  C 0 5.06  4.18 0  9.5 0  C 14.82 0  19 5.06  19 11.5  C 19 17.94  14.82 23  9.5 23  C 4.18 23  0 17.94  0 11.5  Z " fill-rule="evenodd" />
    </mask>
  </defs>
  <g transform="matrix(1 0 0 1 -69 -86 )">
    <path d="M 0 11.5  C 0 5.06  4.18 0  9.5 0  C 14.82 0  19 5.06  19 11.5  C 19 17.94  14.82 23  9.5 23  C 4.18 23  0 17.94  0 11.5  Z " fill-rule="nonzero" fill="rgba(255, 255, 255, 1)" stroke="none" transform="matrix(1 0 0 1 69 86 )" class="fill" />
    <path d="M 0 11.5  C 0 5.06  4.18 0  9.5 0  C 14.82 0  19 5.06  19 11.5  C 19 17.94  14.82 23  9.5 23  C 4.18 23  0 17.94  0 11.5  Z " stroke-width="2" stroke-dasharray="0" stroke="rgba(121, 121, 121, 1)" fill="none" transform="matrix(1 0 0 1 69 86 )" class="stroke" mask="url(#Clip240)" />
  </g>
</svg>