<?xml version="1.0" encoding="utf-8"?>
<svg version="1.1" xmlns:xlink="http://www.w3.org/1999/xlink" width="57px" height="40px" xmlns="http://www.w3.org/2000/svg">
  <defs>
    <pattern id="BGPattern" patternUnits="userSpaceOnUse" alignment="0 0" imageRepeat="None" />
    <mask fill="white" id="Clip241">
      <path d="M 0 20  C 0 8.799999999999999  12.54 0  28.5 0  C 44.46 0  57 8.799999999999999  57 20  C 57 31.200000000000003  44.46 40  28.5 40  C 12.54 40  0 31.200000000000003  0 20  Z " fill-rule="evenodd" />
    </mask>
  </defs>
  <g transform="matrix(1 0 0 1 -38 -366 )">
    <path d="M 0 20  C 0 8.799999999999999  12.54 0  28.5 0  C 44.46 0  57 8.799999999999999  57 20  C 57 31.200000000000003  44.46 40  28.5 40  C 12.54 40  0 31.200000000000003  0 20  Z " fill-rule="nonzero" fill="rgba(255, 255, 255, 1)" stroke="none" transform="matrix(1 0 0 1 38 366 )" class="fill" />
    <path d="M 0 20  C 0 8.799999999999999  12.54 0  28.5 0  C 44.46 0  57 8.799999999999999  57 20  C 57 31.200000000000003  44.46 40  28.5 40  C 12.54 40  0 31.200000000000003  0 20  Z " stroke-width="2" stroke-dasharray="0" stroke="rgba(121, 121, 121, 1)" fill="none" transform="matrix(1 0 0 1 38 366 )" class="stroke" mask="url(#Clip241)" />
  </g>
</svg>