<?xml version="1.0" encoding="utf-8"?>
<svg version="1.1" xmlns:xlink="http://www.w3.org/1999/xlink" width="28px" height="25px" xmlns="http://www.w3.org/2000/svg">
  <defs>
    <pattern id="BGPattern" patternUnits="userSpaceOnUse" alignment="0 0" imageRepeat="None" />
    <mask fill="white" id="Clip261">
      <path d="M 0 12.5  C 0 5.499999999999999  6.159999999999999 0  14 0  C 21.84 0  28 5.499999999999999  28 12.5  C 28 19.5  21.84 25  14 25  C 6.159999999999999 25  0 19.5  0 12.5  Z " fill-rule="evenodd" />
    </mask>
  </defs>
  <g transform="matrix(1 0 0 1 -324 -532 )">
    <path d="M 0 12.5  C 0 5.499999999999999  6.159999999999999 0  14 0  C 21.84 0  28 5.499999999999999  28 12.5  C 28 19.5  21.84 25  14 25  C 6.159999999999999 25  0 19.5  0 12.5  Z " fill-rule="nonzero" fill="rgba(121, 121, 121, 1)" stroke="none" transform="matrix(1 0 0 1 324 532 )" class="fill" />
    <path d="M 0 12.5  C 0 5.499999999999999  6.159999999999999 0  14 0  C 21.84 0  28 5.499999999999999  28 12.5  C 28 19.5  21.84 25  14 25  C 6.159999999999999 25  0 19.5  0 12.5  Z " stroke-width="16" stroke-dasharray="0" stroke="rgba(121, 121, 121, 1)" fill="none" transform="matrix(1 0 0 1 324 532 )" class="stroke" mask="url(#Clip261)" />
  </g>
</svg>