<?xml version="1.0" encoding="utf-8"?>
<svg version="1.1" xmlns:xlink="http://www.w3.org/1999/xlink" width="34px" height="36px" xmlns="http://www.w3.org/2000/svg">
  <defs>
    <pattern id="BGPattern" patternUnits="userSpaceOnUse" alignment="0 0" imageRepeat="None" />
    <mask fill="white" id="Clip266">
      <path d="M 0 18  C 0 7.919999999999999  7.479999999999999 0  17 0  C 26.52 0  34 7.919999999999999  34 18  C 34 28.080000000000002  26.52 36  17 36  C 7.479999999999999 36  0 28.080000000000002  0 18  Z " fill-rule="evenodd" />
    </mask>
  </defs>
  <g transform="matrix(1 0 0 1 -50 -538 )">
    <path d="M 0 18  C 0 7.919999999999999  7.479999999999999 0  17 0  C 26.52 0  34 7.919999999999999  34 18  C 34 28.080000000000002  26.52 36  17 36  C 7.479999999999999 36  0 28.080000000000002  0 18  Z " fill-rule="nonzero" fill="rgba(255, 255, 255, 1)" stroke="none" transform="matrix(1 0 0 1 50 538 )" class="fill" />
    <path d="M 0 18  C 0 7.919999999999999  7.479999999999999 0  17 0  C 26.52 0  34 7.919999999999999  34 18  C 34 28.080000000000002  26.52 36  17 36  C 7.479999999999999 36  0 28.080000000000002  0 18  Z " stroke-width="2" stroke-dasharray="0" stroke="rgba(121, 121, 121, 1)" fill="none" transform="matrix(1 0 0 1 50 538 )" class="stroke" mask="url(#Clip266)" />
  </g>
</svg>