<?xml version="1.0" encoding="utf-8"?>
<svg version="1.1" xmlns:xlink="http://www.w3.org/1999/xlink" width="43px" height="51px" xmlns="http://www.w3.org/2000/svg">
  <defs>
    <pattern id="BGPattern" patternUnits="userSpaceOnUse" alignment="0 0" imageRepeat="None" />
    <mask fill="white" id="Clip289">
      <path d="M 11.2958984375 26.99025974025974  L 41.1103515625 50.503246753246756  C 41.642252604166664 50.92272727272727  42.090169270833336 51.06623376623377  42.4541015625 50.933766233766235  C 42.818033854166664 50.801298701298705  43 50.44805194805195  43 49.874025974025976  L 43 1.1259740259740236  C 43 0.5519480519480474  42.818033854166664 0.19870129870129594  42.4541015625 0.06623376623376342  C 42.090169270833336 -0.06623376623376909  41.642252604166664 0.07727272727272494  41.1103515625 0.4967532467532455  L 11.2958984375 24.00974025974026  C 11.0439453125 24.20844155844156  10.861979166666664 24.418181818181818  11 24.638961038961043  L 11 2.1857142857142837  C 10.75 1.6116883116883076  10.48404947916667 1.114935064935062  9.9521484375 0.6954545454545471  C 9.42024739583333 0.2759740259740209  8.79036458333333 0.06623376623376342  8.0625 0.06623376623376342  L 2.6875 0.06623376623376342  C 1.9596354166666652 0.06623376623376342  1.3297526041666652 0.2759740259740209  0.7978515625 0.6954545454545471  C 0.26595052083333015 1.114935064935062  0 1.6116883116883076  0 2.1857142857142837  L 0 48.81428571428572  C 0 49.38831168831169  0.26595052083333015 49.88506493506493  0.7978515625 50.304545454545455  C 1.3297526041666652 50.72402597402598  1.9596354166666652 50.933766233766235  2.6875 50.933766233766235  L 8.0625 50.933766233766235  C 8.79036458333333 50.933766233766235  9.42024739583333 50.72402597402598  9.9521484375 50.304545454545455  C 10.48404947916667 49.88506493506493  10.75 49.38831168831169  11 48.81428571428572  L 11 26.361038961038965  C 10.861979166666664 26.581818181818182  11.0439453125 26.79155844155844  11.2958984375 26.99025974025974  Z " fill-rule="evenodd" />
    </mask>
  </defs>
  <g transform="matrix(1 0 0 1 -68 -585 )">
    <path d="M 11.2958984375 26.99025974025974  L 41.1103515625 50.503246753246756  C 41.642252604166664 50.92272727272727  42.090169270833336 51.06623376623377  42.4541015625 50.933766233766235  C 42.818033854166664 50.801298701298705  43 50.44805194805195  43 49.874025974025976  L 43 1.1259740259740236  C 43 0.5519480519480474  42.818033854166664 0.19870129870129594  42.4541015625 0.06623376623376342  C 42.090169270833336 -0.06623376623376909  41.642252604166664 0.07727272727272494  41.1103515625 0.4967532467532455  L 11.2958984375 24.00974025974026  C 11.0439453125 24.20844155844156  10.861979166666664 24.418181818181818  11 24.638961038961043  L 11 2.1857142857142837  C 10.75 1.6116883116883076  10.48404947916667 1.114935064935062  9.9521484375 0.6954545454545471  C 9.42024739583333 0.2759740259740209  8.79036458333333 0.06623376623376342  8.0625 0.06623376623376342  L 2.6875 0.06623376623376342  C 1.9596354166666652 0.06623376623376342  1.3297526041666652 0.2759740259740209  0.7978515625 0.6954545454545471  C 0.26595052083333015 1.114935064935062  0 1.6116883116883076  0 2.1857142857142837  L 0 48.81428571428572  C 0 49.38831168831169  0.26595052083333015 49.88506493506493  0.7978515625 50.304545454545455  C 1.3297526041666652 50.72402597402598  1.9596354166666652 50.933766233766235  2.6875 50.933766233766235  L 8.0625 50.933766233766235  C 8.79036458333333 50.933766233766235  9.42024739583333 50.72402597402598  9.9521484375 50.304545454545455  C 10.48404947916667 49.88506493506493  10.75 49.38831168831169  11 48.81428571428572  L 11 26.361038961038965  C 10.861979166666664 26.581818181818182  11.0439453125 26.79155844155844  11.2958984375 26.99025974025974  Z " fill-rule="nonzero" fill="rgba(0, 0, 0, 1)" stroke="none" transform="matrix(1 0 0 1 68 585 )" class="fill" />
    <path d="M 11.2958984375 26.99025974025974  L 41.1103515625 50.503246753246756  C 41.642252604166664 50.92272727272727  42.090169270833336 51.06623376623377  42.4541015625 50.933766233766235  C 42.818033854166664 50.801298701298705  43 50.44805194805195  43 49.874025974025976  L 43 1.1259740259740236  C 43 0.5519480519480474  42.818033854166664 0.19870129870129594  42.4541015625 0.06623376623376342  C 42.090169270833336 -0.06623376623376909  41.642252604166664 0.07727272727272494  41.1103515625 0.4967532467532455  L 11.2958984375 24.00974025974026  C 11.0439453125 24.20844155844156  10.861979166666664 24.418181818181818  11 24.638961038961043  L 11 2.1857142857142837  C 10.75 1.6116883116883076  10.48404947916667 1.114935064935062  9.9521484375 0.6954545454545471  C 9.42024739583333 0.2759740259740209  8.79036458333333 0.06623376623376342  8.0625 0.06623376623376342  L 2.6875 0.06623376623376342  C 1.9596354166666652 0.06623376623376342  1.3297526041666652 0.2759740259740209  0.7978515625 0.6954545454545471  C 0.26595052083333015 1.114935064935062  0 1.6116883116883076  0 2.1857142857142837  L 0 48.81428571428572  C 0 49.38831168831169  0.26595052083333015 49.88506493506493  0.7978515625 50.304545454545455  C 1.3297526041666652 50.72402597402598  1.9596354166666652 50.933766233766235  2.6875 50.933766233766235  L 8.0625 50.933766233766235  C 8.79036458333333 50.933766233766235  9.42024739583333 50.72402597402598  9.9521484375 50.304545454545455  C 10.48404947916667 49.88506493506493  10.75 49.38831168831169  11 48.81428571428572  L 11 26.361038961038965  C 10.861979166666664 26.581818181818182  11.0439453125 26.79155844155844  11.2958984375 26.99025974025974  Z " stroke-width="0" stroke-dasharray="0" stroke="rgba(255, 255, 255, 0)" fill="none" transform="matrix(1 0 0 1 68 585 )" class="stroke" mask="url(#Clip289)" />
  </g>
</svg>