<?xml version="1.0" encoding="utf-8"?>
<svg version="1.1" xmlns:xlink="http://www.w3.org/1999/xlink" width="72px" height="79px" xmlns="http://www.w3.org/2000/svg">
  <defs>
    <pattern id="BGPattern" patternUnits="userSpaceOnUse" alignment="0 0" imageRepeat="None" />
    <mask fill="white" id="Clip290">
      <path d="M 17.9296875 5.297526041666663  C 23.4453125 1.7658420138888822  29.468750000000004 0  36 0  C 42.53125 0  48.55468750000001 1.7658420138888822  54.0703125 5.297526041666663  C 59.5859375 8.829210069444436  63.95312500000001 13.620985243055555  67.171875 19.6728515625  C 70.39062499999999 25.724717881944436  72 32.3337673611111  72 39.5  C 72 46.66623263888889  70.39062499999999 53.27528211805554  67.171875 59.3271484375  C 63.95312500000001 65.37901475694444  59.5859375 70.17078993055556  54.0703125 73.70247395833334  C 48.55468750000001 77.23415798611111  42.53125 79  36 79  C 29.468750000000004 79  23.4453125 77.23415798611111  17.9296875 73.70247395833334  C 12.414062500000002 70.17078993055556  8.046875 65.37901475694444  4.828125 59.3271484375  C 1.6093749999999998 53.27528211805554  0 46.66623263888889  0 39.5  C 0 32.3337673611111  1.6093749999999998 25.724717881944436  4.828125 19.6728515625  C 8.046875 13.620985243055555  12.414062500000002 8.829210069444436  17.9296875 5.297526041666663  Z M 28.5 58.787109375  L 54 42.32877604166667  C 55.00000000000001 41.71158854166667  55.5 40.768663194444436  55.5 39.5  C 55.5 38.23133680555556  55.00000000000001 37.288411458333336  54 36.671223958333336  L 28.5 20.212890625  C 27.531250000000004 19.561414930555554  26.53125 19.544270833333336  25.5 20.161458333333336  C 24.500000000000004 20.81293402777777  24 21.773003472222218  24 23.041666666666664  L 24 55.95833333333333  C 24 57.226996527777764  24.500000000000004 58.18706597222222  25.5 58.83854166666667  C 26.000000000000004 59.11284722222222  26.5 59.25  27 59.25  C 27.531250000000004 59.25  28.03125 59.095703125  28.5 58.787109375  Z " fill-rule="evenodd" />
    </mask>
  </defs>
  <g transform="matrix(1 0 0 1 -162 -571 )">
    <path d="M 17.9296875 5.297526041666663  C 23.4453125 1.7658420138888822  29.468750000000004 0  36 0  C 42.53125 0  48.55468750000001 1.7658420138888822  54.0703125 5.297526041666663  C 59.5859375 8.829210069444436  63.95312500000001 13.620985243055555  67.171875 19.6728515625  C 70.39062499999999 25.724717881944436  72 32.3337673611111  72 39.5  C 72 46.66623263888889  70.39062499999999 53.27528211805554  67.171875 59.3271484375  C 63.95312500000001 65.37901475694444  59.5859375 70.17078993055556  54.0703125 73.70247395833334  C 48.55468750000001 77.23415798611111  42.53125 79  36 79  C 29.468750000000004 79  23.4453125 77.23415798611111  17.9296875 73.70247395833334  C 12.414062500000002 70.17078993055556  8.046875 65.37901475694444  4.828125 59.3271484375  C 1.6093749999999998 53.27528211805554  0 46.66623263888889  0 39.5  C 0 32.3337673611111  1.6093749999999998 25.724717881944436  4.828125 19.6728515625  C 8.046875 13.620985243055555  12.414062500000002 8.829210069444436  17.9296875 5.297526041666663  Z M 28.5 58.787109375  L 54 42.32877604166667  C 55.00000000000001 41.71158854166667  55.5 40.768663194444436  55.5 39.5  C 55.5 38.23133680555556  55.00000000000001 37.288411458333336  54 36.671223958333336  L 28.5 20.212890625  C 27.531250000000004 19.561414930555554  26.53125 19.544270833333336  25.5 20.161458333333336  C 24.500000000000004 20.81293402777777  24 21.773003472222218  24 23.041666666666664  L 24 55.95833333333333  C 24 57.226996527777764  24.500000000000004 58.18706597222222  25.5 58.83854166666667  C 26.000000000000004 59.11284722222222  26.5 59.25  27 59.25  C 27.531250000000004 59.25  28.03125 59.095703125  28.5 58.787109375  Z " fill-rule="nonzero" fill="rgba(0, 0, 0, 1)" stroke="none" transform="matrix(1 0 0 1 162 571 )" class="fill" />
    <path d="M 17.9296875 5.297526041666663  C 23.4453125 1.7658420138888822  29.468750000000004 0  36 0  C 42.53125 0  48.55468750000001 1.7658420138888822  54.0703125 5.297526041666663  C 59.5859375 8.829210069444436  63.95312500000001 13.620985243055555  67.171875 19.6728515625  C 70.39062499999999 25.724717881944436  72 32.3337673611111  72 39.5  C 72 46.66623263888889  70.39062499999999 53.27528211805554  67.171875 59.3271484375  C 63.95312500000001 65.37901475694444  59.5859375 70.17078993055556  54.0703125 73.70247395833334  C 48.55468750000001 77.23415798611111  42.53125 79  36 79  C 29.468750000000004 79  23.4453125 77.23415798611111  17.9296875 73.70247395833334  C 12.414062500000002 70.17078993055556  8.046875 65.37901475694444  4.828125 59.3271484375  C 1.6093749999999998 53.27528211805554  0 46.66623263888889  0 39.5  C 0 32.3337673611111  1.6093749999999998 25.724717881944436  4.828125 19.6728515625  C 8.046875 13.620985243055555  12.414062500000002 8.829210069444436  17.9296875 5.297526041666663  Z " stroke-width="0" stroke-dasharray="0" stroke="rgba(255, 255, 255, 0)" fill="none" transform="matrix(1 0 0 1 162 571 )" class="stroke" mask="url(#Clip290)" />
    <path d="M 28.5 58.787109375  L 54 42.32877604166667  C 55.00000000000001 41.71158854166667  55.5 40.768663194444436  55.5 39.5  C 55.5 38.23133680555556  55.00000000000001 37.288411458333336  54 36.671223958333336  L 28.5 20.212890625  C 27.531250000000004 19.561414930555554  26.53125 19.544270833333336  25.5 20.161458333333336  C 24.500000000000004 20.81293402777777  24 21.773003472222218  24 23.041666666666664  L 24 55.95833333333333  C 24 57.226996527777764  24.500000000000004 58.18706597222222  25.5 58.83854166666667  C 26.000000000000004 59.11284722222222  26.5 59.25  27 59.25  C 27.531250000000004 59.25  28.03125 59.095703125  28.5 58.787109375  Z " stroke-width="0" stroke-dasharray="0" stroke="rgba(255, 255, 255, 0)" fill="none" transform="matrix(1 0 0 1 162 571 )" class="stroke" mask="url(#Clip290)" />
  </g>
</svg>