<?xml version="1.0" encoding="utf-8"?>
<svg version="1.1" xmlns:xlink="http://www.w3.org/1999/xlink" width="34px" height="25px" xmlns="http://www.w3.org/2000/svg">
  <defs>
    <pattern id="BGPattern" patternUnits="userSpaceOnUse" alignment="0 0" imageRepeat="None" />
    <mask fill="white" id="Clip291">
      <path d="M 0 12.5  C 0 5.499999999999999  7.479999999999999 0  17 0  C 26.52 0  34 5.499999999999999  34 12.5  C 34 19.5  26.52 25  17 25  C 7.479999999999999 25  0 19.5  0 12.5  Z " fill-rule="evenodd" />
    </mask>
  </defs>
  <g transform="matrix(1 0 0 1 349 -103 )">
    <path d="M 0 12.5  C 0 5.499999999999999  7.479999999999999 0  17 0  C 26.52 0  34 5.499999999999999  34 12.5  C 34 19.5  26.52 25  17 25  C 7.479999999999999 25  0 19.5  0 12.5  Z " fill-rule="nonzero" fill="rgba(255, 255, 255, 1)" stroke="none" transform="matrix(1 0 0 1 -349 103 )" class="fill" />
    <path d="M 0 12.5  C 0 5.499999999999999  7.479999999999999 0  17 0  C 26.52 0  34 5.499999999999999  34 12.5  C 34 19.5  26.52 25  17 25  C 7.479999999999999 25  0 19.5  0 12.5  Z " stroke-width="2" stroke-dasharray="0" stroke="rgba(121, 121, 121, 1)" fill="none" transform="matrix(1 0 0 1 -349 103 )" class="stroke" mask="url(#Clip291)" />
  </g>
</svg>