<?xml version="1.0" encoding="utf-8"?>
<svg version="1.1" xmlns:xlink="http://www.w3.org/1999/xlink" width="72px" height="79px" xmlns="http://www.w3.org/2000/svg">
  <defs>
    <pattern id="BGPattern" patternUnits="userSpaceOnUse" alignment="0 0" imageRepeat="None" />
    <mask fill="white" id="Clip292">
      <path d="M 32.578125 55.49544270833333  C 32.859375 55.18684895833333  33 54.79253472222222  33 54.3125  L 33 24.6875  C 33 24.20746527777777  32.859375 23.813151041666664  32.578125 23.504557291666664  C 32.296875 23.195963541666664  31.9375 23.041666666666664  31.5 23  L 19.5 23  C 19.062500000000004 23.041666666666664  18.703125000000004 23.195963541666664  18.421875 23.504557291666664  C 18.140625 23.813151041666664  18 24.20746527777777  18 24.6875  L 18 54.3125  C 18 54.79253472222222  18.140625 55.18684895833333  18.421875 55.49544270833333  C 18.703125000000004 55.80403645833333  19.062500000000004 55.95833333333333  19.5 56  L 31.5 56  C 31.9375 55.95833333333333  32.296875 55.80403645833333  32.578125 55.49544270833333  Z M 53.578125 55.49544270833333  C 53.859375 55.18684895833333  54 54.79253472222222  54 54.3125  L 54 24.6875  C 54 24.20746527777777  53.859375 23.813151041666664  53.578125 23.504557291666664  C 53.296875 23.195963541666664  52.93750000000001 23.041666666666664  52.5 23  L 40.5 23  C 40.0625 23.041666666666664  39.703125 23.195963541666664  39.421875 23.504557291666664  C 39.140625 23.813151041666664  39 24.20746527777777  39 24.6875  L 39 54.3125  C 39 54.79253472222222  39.140625 55.18684895833333  39.421875 55.49544270833333  C 39.703125 55.80403645833333  40.0625 55.95833333333333  40.5 56  L 52.5 56  C 52.93750000000001 55.95833333333333  53.296875 55.80403645833333  53.578125 55.49544270833333  Z M 67.171875 19.6728515625  C 70.39062499999999 25.724717881944436  72 32.3337673611111  72 39.5  C 72 46.66623263888889  70.39062499999999 53.27528211805554  67.171875 59.3271484375  C 63.95312500000001 65.37901475694444  59.5859375 70.17078993055556  54.0703125 73.70247395833334  C 48.55468750000001 77.23415798611111  42.53125 79  36 79  C 29.468750000000004 79  23.4453125 77.23415798611111  17.9296875 73.70247395833334  C 12.414062500000002 70.17078993055556  8.046875 65.37901475694444  4.828125 59.3271484375  C 1.6093749999999998 53.27528211805554  0 46.66623263888889  0 39.5  C 0 32.3337673611111  1.6093749999999998 25.724717881944436  4.828125 19.6728515625  C 8.046875 13.620985243055555  12.414062500000002 8.829210069444436  17.9296875 5.297526041666663  C 23.4453125 1.7658420138888822  29.468750000000004 0  36 0  C 42.53125 0  48.55468750000001 1.7658420138888822  54.0703125 5.297526041666663  C 59.5859375 8.829210069444436  63.95312500000001 13.620985243055555  67.171875 19.6728515625  Z " fill-rule="evenodd" />
    </mask>
  </defs>
  <g transform="matrix(1 0 0 1 -162 -571 )">
    <path d="M 32.578125 55.49544270833333  C 32.859375 55.18684895833333  33 54.79253472222222  33 54.3125  L 33 24.6875  C 33 24.20746527777777  32.859375 23.813151041666664  32.578125 23.504557291666664  C 32.296875 23.195963541666664  31.9375 23.041666666666664  31.5 23  L 19.5 23  C 19.062500000000004 23.041666666666664  18.703125000000004 23.195963541666664  18.421875 23.504557291666664  C 18.140625 23.813151041666664  18 24.20746527777777  18 24.6875  L 18 54.3125  C 18 54.79253472222222  18.140625 55.18684895833333  18.421875 55.49544270833333  C 18.703125000000004 55.80403645833333  19.062500000000004 55.95833333333333  19.5 56  L 31.5 56  C 31.9375 55.95833333333333  32.296875 55.80403645833333  32.578125 55.49544270833333  Z M 53.578125 55.49544270833333  C 53.859375 55.18684895833333  54 54.79253472222222  54 54.3125  L 54 24.6875  C 54 24.20746527777777  53.859375 23.813151041666664  53.578125 23.504557291666664  C 53.296875 23.195963541666664  52.93750000000001 23.041666666666664  52.5 23  L 40.5 23  C 40.0625 23.041666666666664  39.703125 23.195963541666664  39.421875 23.504557291666664  C 39.140625 23.813151041666664  39 24.20746527777777  39 24.6875  L 39 54.3125  C 39 54.79253472222222  39.140625 55.18684895833333  39.421875 55.49544270833333  C 39.703125 55.80403645833333  40.0625 55.95833333333333  40.5 56  L 52.5 56  C 52.93750000000001 55.95833333333333  53.296875 55.80403645833333  53.578125 55.49544270833333  Z M 67.171875 19.6728515625  C 70.39062499999999 25.724717881944436  72 32.3337673611111  72 39.5  C 72 46.66623263888889  70.39062499999999 53.27528211805554  67.171875 59.3271484375  C 63.95312500000001 65.37901475694444  59.5859375 70.17078993055556  54.0703125 73.70247395833334  C 48.55468750000001 77.23415798611111  42.53125 79  36 79  C 29.468750000000004 79  23.4453125 77.23415798611111  17.9296875 73.70247395833334  C 12.414062500000002 70.17078993055556  8.046875 65.37901475694444  4.828125 59.3271484375  C 1.6093749999999998 53.27528211805554  0 46.66623263888889  0 39.5  C 0 32.3337673611111  1.6093749999999998 25.724717881944436  4.828125 19.6728515625  C 8.046875 13.620985243055555  12.414062500000002 8.829210069444436  17.9296875 5.297526041666663  C 23.4453125 1.7658420138888822  29.468750000000004 0  36 0  C 42.53125 0  48.55468750000001 1.7658420138888822  54.0703125 5.297526041666663  C 59.5859375 8.829210069444436  63.95312500000001 13.620985243055555  67.171875 19.6728515625  Z " fill-rule="nonzero" fill="rgba(0, 0, 0, 1)" stroke="none" transform="matrix(1 0 0 1 162 571 )" class="fill" />
    <path d="M 32.578125 55.49544270833333  C 32.859375 55.18684895833333  33 54.79253472222222  33 54.3125  L 33 24.6875  C 33 24.20746527777777  32.859375 23.813151041666664  32.578125 23.504557291666664  C 32.296875 23.195963541666664  31.9375 23.041666666666664  31.5 23  L 19.5 23  C 19.062500000000004 23.041666666666664  18.703125000000004 23.195963541666664  18.421875 23.504557291666664  C 18.140625 23.813151041666664  18 24.20746527777777  18 24.6875  L 18 54.3125  C 18 54.79253472222222  18.140625 55.18684895833333  18.421875 55.49544270833333  C 18.703125000000004 55.80403645833333  19.062500000000004 55.95833333333333  19.5 56  L 31.5 56  C 31.9375 55.95833333333333  32.296875 55.80403645833333  32.578125 55.49544270833333  Z " stroke-width="0" stroke-dasharray="0" stroke="rgba(255, 255, 255, 0)" fill="none" transform="matrix(1 0 0 1 162 571 )" class="stroke" mask="url(#Clip292)" />
    <path d="M 53.578125 55.49544270833333  C 53.859375 55.18684895833333  54 54.79253472222222  54 54.3125  L 54 24.6875  C 54 24.20746527777777  53.859375 23.813151041666664  53.578125 23.504557291666664  C 53.296875 23.195963541666664  52.93750000000001 23.041666666666664  52.5 23  L 40.5 23  C 40.0625 23.041666666666664  39.703125 23.195963541666664  39.421875 23.504557291666664  C 39.140625 23.813151041666664  39 24.20746527777777  39 24.6875  L 39 54.3125  C 39 54.79253472222222  39.140625 55.18684895833333  39.421875 55.49544270833333  C 39.703125 55.80403645833333  40.0625 55.95833333333333  40.5 56  L 52.5 56  C 52.93750000000001 55.95833333333333  53.296875 55.80403645833333  53.578125 55.49544270833333  Z " stroke-width="0" stroke-dasharray="0" stroke="rgba(255, 255, 255, 0)" fill="none" transform="matrix(1 0 0 1 162 571 )" class="stroke" mask="url(#Clip292)" />
    <path d="M 67.171875 19.6728515625  C 70.39062499999999 25.724717881944436  72 32.3337673611111  72 39.5  C 72 46.66623263888889  70.39062499999999 53.27528211805554  67.171875 59.3271484375  C 63.95312500000001 65.37901475694444  59.5859375 70.17078993055556  54.0703125 73.70247395833334  C 48.55468750000001 77.23415798611111  42.53125 79  36 79  C 29.468750000000004 79  23.4453125 77.23415798611111  17.9296875 73.70247395833334  C 12.414062500000002 70.17078993055556  8.046875 65.37901475694444  4.828125 59.3271484375  C 1.6093749999999998 53.27528211805554  0 46.66623263888889  0 39.5  C 0 32.3337673611111  1.6093749999999998 25.724717881944436  4.828125 19.6728515625  C 8.046875 13.620985243055555  12.414062500000002 8.829210069444436  17.9296875 5.297526041666663  C 23.4453125 1.7658420138888822  29.468750000000004 0  36 0  C 42.53125 0  48.55468750000001 1.7658420138888822  54.0703125 5.297526041666663  C 59.5859375 8.829210069444436  63.95312500000001 13.620985243055555  67.171875 19.6728515625  Z " stroke-width="0" stroke-dasharray="0" stroke="rgba(255, 255, 255, 0)" fill="none" transform="matrix(1 0 0 1 162 571 )" class="stroke" mask="url(#Clip292)" />
  </g>
</svg>