<?xml version="1.0" encoding="utf-8"?>
<svg version="1.1" xmlns:xlink="http://www.w3.org/1999/xlink" width="33px" height="53px" xmlns="http://www.w3.org/2000/svg">
  <defs>
    <pattern id="BGPattern" patternUnits="userSpaceOnUse" alignment="0 0" imageRepeat="None" />
    <mask fill="white" id="Clip277">
      <path d="M 22.3330078125 23.912109375  C 23.9443359375 22.186848958333332  24.75 20.10503472222222  24.75 17.666666666666668  C 24.75 15.228298611111109  23.9443359375 13.146484375  22.3330078125 11.421223958333332  C 20.7216796875 9.695963541666668  18.777343750000004 8.833333333333332  16.5 8.833333333333332  C 14.222656250000002 8.833333333333332  12.2783203125 9.695963541666668  10.6669921875 11.421223958333332  C 9.0556640625 13.146484375  8.25 15.228298611111109  8.25 17.666666666666668  C 8.25 20.10503472222222  9.0556640625 22.186848958333332  10.6669921875 23.912109375  C 12.2783203125 25.637369791666668  14.222656250000002 26.5  16.5 26.5  C 18.777343750000004 26.5  20.7216796875 25.637369791666668  22.3330078125 23.912109375  Z M 28.166015625 5.17578125  C 31.388671875 8.626302083333332  33 12.789930555555548  33 17.666666666666668  C 33 20.174045138888886  32.6455078125 22.23285590277778  31.9365234375 23.843098958333332  L 20.2060546875 50.55013020833333  C 19.8623046875 51.30924479166667  19.35205078125 51.90733506944444  18.67529296875 52.34440104166667  C 17.99853515625 52.78146701388889  17.2734375 53  16.5 53  C 15.7265625 53  15.00146484375 52.78146701388889  14.32470703125 52.34440104166667  C 13.64794921875 51.90733506944444  13.1484375 51.30924479166667  12.826171875 50.55013020833333  L 1.0634765625 23.843098958333332  C 0.3544921875 22.23285590277778  0 20.174045138888886  0 17.666666666666668  C 0 12.789930555555548  1.611328125 8.626302083333332  4.833984375 5.17578125  C 8.056640625000002 1.7252604166666687  11.9453125 0  16.5 0  C 21.0546875 0  24.943359375 1.7252604166666687  28.166015625 5.17578125  Z " fill-rule="evenodd" />
    </mask>
  </defs>
  <g transform="matrix(1 0 0 1 -103 -389 )">
    <path d="M 22.3330078125 23.912109375  C 23.9443359375 22.186848958333332  24.75 20.10503472222222  24.75 17.666666666666668  C 24.75 15.228298611111109  23.9443359375 13.146484375  22.3330078125 11.421223958333332  C 20.7216796875 9.695963541666668  18.777343750000004 8.833333333333332  16.5 8.833333333333332  C 14.222656250000002 8.833333333333332  12.2783203125 9.695963541666668  10.6669921875 11.421223958333332  C 9.0556640625 13.146484375  8.25 15.228298611111109  8.25 17.666666666666668  C 8.25 20.10503472222222  9.0556640625 22.186848958333332  10.6669921875 23.912109375  C 12.2783203125 25.637369791666668  14.222656250000002 26.5  16.5 26.5  C 18.777343750000004 26.5  20.7216796875 25.637369791666668  22.3330078125 23.912109375  Z M 28.166015625 5.17578125  C 31.388671875 8.626302083333332  33 12.789930555555548  33 17.666666666666668  C 33 20.174045138888886  32.6455078125 22.23285590277778  31.9365234375 23.843098958333332  L 20.2060546875 50.55013020833333  C 19.8623046875 51.30924479166667  19.35205078125 51.90733506944444  18.67529296875 52.34440104166667  C 17.99853515625 52.78146701388889  17.2734375 53  16.5 53  C 15.7265625 53  15.00146484375 52.78146701388889  14.32470703125 52.34440104166667  C 13.64794921875 51.90733506944444  13.1484375 51.30924479166667  12.826171875 50.55013020833333  L 1.0634765625 23.843098958333332  C 0.3544921875 22.23285590277778  0 20.174045138888886  0 17.666666666666668  C 0 12.789930555555548  1.611328125 8.626302083333332  4.833984375 5.17578125  C 8.056640625000002 1.7252604166666687  11.9453125 0  16.5 0  C 21.0546875 0  24.943359375 1.7252604166666687  28.166015625 5.17578125  Z " fill-rule="nonzero" fill="rgba(217, 0, 27, 1)" stroke="none" transform="matrix(1 0 0 1 103 389 )" class="fill" />
    <path d="M 22.3330078125 23.912109375  C 23.9443359375 22.186848958333332  24.75 20.10503472222222  24.75 17.666666666666668  C 24.75 15.228298611111109  23.9443359375 13.146484375  22.3330078125 11.421223958333332  C 20.7216796875 9.695963541666668  18.777343750000004 8.833333333333332  16.5 8.833333333333332  C 14.222656250000002 8.833333333333332  12.2783203125 9.695963541666668  10.6669921875 11.421223958333332  C 9.0556640625 13.146484375  8.25 15.228298611111109  8.25 17.666666666666668  C 8.25 20.10503472222222  9.0556640625 22.186848958333332  10.6669921875 23.912109375  C 12.2783203125 25.637369791666668  14.222656250000002 26.5  16.5 26.5  C 18.777343750000004 26.5  20.7216796875 25.637369791666668  22.3330078125 23.912109375  Z " stroke-width="0" stroke-dasharray="0" stroke="rgba(255, 255, 255, 0)" fill="none" transform="matrix(1 0 0 1 103 389 )" class="stroke" mask="url(#Clip277)" />
    <path d="M 28.166015625 5.17578125  C 31.388671875 8.626302083333332  33 12.789930555555548  33 17.666666666666668  C 33 20.174045138888886  32.6455078125 22.23285590277778  31.9365234375 23.843098958333332  L 20.2060546875 50.55013020833333  C 19.8623046875 51.30924479166667  19.35205078125 51.90733506944444  18.67529296875 52.34440104166667  C 17.99853515625 52.78146701388889  17.2734375 53  16.5 53  C 15.7265625 53  15.00146484375 52.78146701388889  14.32470703125 52.34440104166667  C 13.64794921875 51.90733506944444  13.1484375 51.30924479166667  12.826171875 50.55013020833333  L 1.0634765625 23.843098958333332  C 0.3544921875 22.23285590277778  0 20.174045138888886  0 17.666666666666668  C 0 12.789930555555548  1.611328125 8.626302083333332  4.833984375 5.17578125  C 8.056640625000002 1.7252604166666687  11.9453125 0  16.5 0  C 21.0546875 0  24.943359375 1.7252604166666687  28.166015625 5.17578125  Z " stroke-width="0" stroke-dasharray="0" stroke="rgba(255, 255, 255, 0)" fill="none" transform="matrix(1 0 0 1 103 389 )" class="stroke" mask="url(#Clip277)" />
  </g>
</svg>