<?xml version="1.0" encoding="utf-8"?>
<svg version="1.1" xmlns:xlink="http://www.w3.org/1999/xlink" width="23px" height="22px" xmlns="http://www.w3.org/2000/svg">
  <defs>
    <pattern id="BGPattern" patternUnits="userSpaceOnUse" alignment="0 0" imageRepeat="None" />
    <mask fill="white" id="Clip281">
      <path d="M 0 6  C 0 2.6399999999999997  2.8599999999999994 0  6.5 0  C 10.14 0  13 2.6399999999999997  13 6  C 13 9.36  10.14 12  6.5 12  C 2.8599999999999994 12  0 9.36  0 6  Z " fill-rule="evenodd" />
    </mask>
  </defs>
  <g transform="matrix(1 0 0 1 -70 -28 )">
    <path d="M 0 6  C 0 2.6399999999999997  2.8599999999999994 0  6.5 0  C 10.14 0  13 2.6399999999999997  13 6  C 13 9.36  10.14 12  6.5 12  C 2.8599999999999994 12  0 9.36  0 6  Z " fill-rule="nonzero" fill="rgba(0, 194, 255, 1)" stroke="none" transform="matrix(1 0 0 1 74 32 )" class="fill" />
    <path d="M 0 6  C 0 2.6399999999999997  2.8599999999999994 0  6.5 0  C 10.14 0  13 2.6399999999999997  13 6  C 13 9.36  10.14 12  6.5 12  C 2.8599999999999994 12  0 9.36  0 6  Z " stroke-width="2" stroke-dasharray="0" stroke="rgba(255, 255, 255, 1)" fill="none" transform="matrix(1 0 0 1 74 32 )" class="stroke" mask="url(#Clip281)" />
  </g>
  <style>svg { filter: drop-shadow(1px 1px 2.5px rgba(0, 0, 0, 0.6980392156862745)); }</style>
</svg>