<?xml version="1.0" encoding="utf-8"?>
<svg version="1.1" xmlns:xlink="http://www.w3.org/1999/xlink" width="18px" height="19px" xmlns="http://www.w3.org/2000/svg">
  <defs>
    <pattern id="BGPattern" patternUnits="userSpaceOnUse" alignment="0 0" imageRepeat="None" />
    <mask fill="white" id="Clip282">
      <path d="M 17.980837473385378 0.7219460227272722  C 18.010645848119236 0.9063683712121196  17.982966643009227 1.0840435606060597  17.897799858055357 1.2549715909090908  L 9.721788502484031 18.527698863636363  C 9.577004968062457 18.84256628787879  9.334279630943932 19  8.99361249112846 19  C 8.951029098651528 19  8.887154009936125 18.99100378787879  8.801987224982257 18.973011363636363  C 8.614620298083748 18.928030303030305  8.463449254790632 18.826822916666668  8.34847409510291 18.669389204545453  C 8.233498935415188 18.511955492424242  8.176011355571326 18.334280303030305  8.176011355571326 18.136363636363637  L 8.176011355571326 10.363636363636363  L 0.8176011355571328 10.363636363636363  C 0.6302342086586232 10.363636363636363  0.46202980837473395 10.302911931818182  0.3129879347054649 10.181463068181818  C 0.16394606103619586 10.060014204545455  0.0681334279630944 9.900331439393938  0.0255500354861604 9.702414772727273  C -0.0170333569907736 9.504498106060606  0 9.31557765151515  0.0766501064584812 9.13565340909091  C 0.15330021291696241 8.955729166666666  0.276792051100071 8.820785984848484  0.44712562100780695 8.730823863636363  L 16.799148332150462 0.09446022727272785  C 16.90986515259049 0.03148674242424121  17.0333569907736 0  17.169623846699785 0  C 17.39957416607523 0  17.591199432221433 0.08546401515151336  17.744499645138397 0.2563920454545464  C 17.8722498225692 0.38233901515151336  17.951029098651528 0.5375236742424226  17.980837473385378 0.7219460227272722  Z " fill-rule="evenodd" />
    </mask>
  </defs>
  <g transform="matrix(1 0 0 1 -69 -83 )">
    <path d="M 17.980837473385378 0.7219460227272722  C 18.010645848119236 0.9063683712121196  17.982966643009227 1.0840435606060597  17.897799858055357 1.2549715909090908  L 9.721788502484031 18.527698863636363  C 9.577004968062457 18.84256628787879  9.334279630943932 19  8.99361249112846 19  C 8.951029098651528 19  8.887154009936125 18.99100378787879  8.801987224982257 18.973011363636363  C 8.614620298083748 18.928030303030305  8.463449254790632 18.826822916666668  8.34847409510291 18.669389204545453  C 8.233498935415188 18.511955492424242  8.176011355571326 18.334280303030305  8.176011355571326 18.136363636363637  L 8.176011355571326 10.363636363636363  L 0.8176011355571328 10.363636363636363  C 0.6302342086586232 10.363636363636363  0.46202980837473395 10.302911931818182  0.3129879347054649 10.181463068181818  C 0.16394606103619586 10.060014204545455  0.0681334279630944 9.900331439393938  0.0255500354861604 9.702414772727273  C -0.0170333569907736 9.504498106060606  0 9.31557765151515  0.0766501064584812 9.13565340909091  C 0.15330021291696241 8.955729166666666  0.276792051100071 8.820785984848484  0.44712562100780695 8.730823863636363  L 16.799148332150462 0.09446022727272785  C 16.90986515259049 0.03148674242424121  17.0333569907736 0  17.169623846699785 0  C 17.39957416607523 0  17.591199432221433 0.08546401515151336  17.744499645138397 0.2563920454545464  C 17.8722498225692 0.38233901515151336  17.951029098651528 0.5375236742424226  17.980837473385378 0.7219460227272722  Z " fill-rule="nonzero" fill="rgba(217, 0, 27, 1)" stroke="none" transform="matrix(1 0 0 1 69 83 )" class="fill" />
    <path d="M 17.980837473385378 0.7219460227272722  C 18.010645848119236 0.9063683712121196  17.982966643009227 1.0840435606060597  17.897799858055357 1.2549715909090908  L 9.721788502484031 18.527698863636363  C 9.577004968062457 18.84256628787879  9.334279630943932 19  8.99361249112846 19  C 8.951029098651528 19  8.887154009936125 18.99100378787879  8.801987224982257 18.973011363636363  C 8.614620298083748 18.928030303030305  8.463449254790632 18.826822916666668  8.34847409510291 18.669389204545453  C 8.233498935415188 18.511955492424242  8.176011355571326 18.334280303030305  8.176011355571326 18.136363636363637  L 8.176011355571326 10.363636363636363  L 0.8176011355571328 10.363636363636363  C 0.6302342086586232 10.363636363636363  0.46202980837473395 10.302911931818182  0.3129879347054649 10.181463068181818  C 0.16394606103619586 10.060014204545455  0.0681334279630944 9.900331439393938  0.0255500354861604 9.702414772727273  C -0.0170333569907736 9.504498106060606  0 9.31557765151515  0.0766501064584812 9.13565340909091  C 0.15330021291696241 8.955729166666666  0.276792051100071 8.820785984848484  0.44712562100780695 8.730823863636363  L 16.799148332150462 0.09446022727272785  C 16.90986515259049 0.03148674242424121  17.0333569907736 0  17.169623846699785 0  C 17.39957416607523 0  17.591199432221433 0.08546401515151336  17.744499645138397 0.2563920454545464  C 17.8722498225692 0.38233901515151336  17.951029098651528 0.5375236742424226  17.980837473385378 0.7219460227272722  Z " stroke-width="2" stroke-dasharray="0" stroke="rgba(0, 0, 0, 1)" fill="none" transform="matrix(1 0 0 1 69 83 )" class="stroke" mask="url(#Clip282)" />
  </g>
</svg>