<?xml version="1.0" encoding="utf-8"?>
<svg version="1.1" xmlns:xlink="http://www.w3.org/1999/xlink" width="76px" height="68px" xmlns="http://www.w3.org/2000/svg">
  <defs>
    <pattern id="BGPattern" patternUnits="userSpaceOnUse" alignment="0 0" imageRepeat="None" />
    <mask fill="white" id="Clip247">
      <path d="M 0 34  C 0 14.959999999999997  16.72 0  38 0  C 59.28 0  76 14.959999999999997  76 34  C 76 53.04  59.28 68  38 68  C 16.72 68  0 53.04  0 34  Z " fill-rule="evenodd" />
    </mask>
  </defs>
  <g transform="matrix(1 0 0 1 -233 -242 )">
    <path d="M 0 34  C 0 14.959999999999997  16.72 0  38 0  C 59.28 0  76 14.959999999999997  76 34  C 76 53.04  59.28 68  38 68  C 16.72 68  0 53.04  0 34  Z " fill-rule="nonzero" fill="rgba(255, 255, 255, 1)" stroke="none" transform="matrix(1 0 0 1 233 242 )" class="fill" />
    <path d="M 0 34  C 0 14.959999999999997  16.72 0  38 0  C 59.28 0  76 14.959999999999997  76 34  C 76 53.04  59.28 68  38 68  C 16.72 68  0 53.04  0 34  Z " stroke-width="2" stroke-dasharray="0" stroke="rgba(121, 121, 121, 1)" fill="none" transform="matrix(1 0 0 1 233 242 )" class="stroke" mask="url(#Clip247)" />
  </g>
</svg>