<?xml version="1.0" encoding="utf-8"?>
<svg version="1.1" xmlns:xlink="http://www.w3.org/1999/xlink" width="57px" height="63px" xmlns="http://www.w3.org/2000/svg">
  <defs>
    <pattern id="BGPattern" patternUnits="userSpaceOnUse" alignment="0 0" imageRepeat="None" />
    <mask fill="white" id="Clip227">
      <path d="M 0 31.5  C 0 13.859999999999998  12.54 0  28.5 0  C 44.46 0  57 13.859999999999998  57 31.5  C 57 49.14  44.46 63  28.5 63  C 12.54 63  0 49.14  0 31.5  Z " fill-rule="evenodd" />
    </mask>
  </defs>
  <g transform="matrix(1 0 0 1 -310 -527 )">
    <path d="M 0 31.5  C 0 13.859999999999998  12.54 0  28.5 0  C 44.46 0  57 13.859999999999998  57 31.5  C 57 49.14  44.46 63  28.5 63  C 12.54 63  0 49.14  0 31.5  Z " fill-rule="nonzero" fill="rgba(255, 255, 255, 1)" stroke="none" transform="matrix(1 0 0 1 310 527 )" class="fill" />
    <path d="M 0 31.5  C 0 13.859999999999998  12.54 0  28.5 0  C 44.46 0  57 13.859999999999998  57 31.5  C 57 49.14  44.46 63  28.5 63  C 12.54 63  0 49.14  0 31.5  Z " stroke-width="2" stroke-dasharray="0" stroke="rgba(121, 121, 121, 1)" fill="none" transform="matrix(1 0 0 1 310 527 )" class="stroke" mask="url(#Clip227)" />
  </g>
</svg>